<svg width="126" height="40" viewBox="0 0 126 40" fill="none" xmlns="http://www.w3.org/2000/svg">
<path d="M43.0078 19.6823V8.38055H47.028C47.8945 8.38055 48.6264 8.50971 49.2238 8.76804C49.8211 9.02636 50.2732 9.42461 50.58 9.96279C50.8921 10.501 51.0482 11.1898 51.0482 12.0294C51.0482 12.8797 50.8948 13.582 50.588 14.1363C50.2813 14.6853 49.8319 15.0943 49.2399 15.3634C48.6479 15.6271 47.9268 15.7589 47.0764 15.7589H45.0744V19.6823H43.0078ZM45.0744 14.0314H46.8343C47.5393 14.0314 48.0667 13.8726 48.4165 13.5551C48.7717 13.2376 48.9493 12.7398 48.9493 12.0617C48.9493 11.3836 48.769 10.8885 48.4084 10.5763C48.0532 10.2642 47.5124 10.1081 46.7858 10.1081H45.0744V14.0314ZM51.8521 19.6823L53.4182 8.38055H55.1135L57.8743 13.5309L60.619 8.38055H62.3143L63.8804 19.6823H61.733L60.6513 11.1898L61.2164 11.3028L57.8743 17.3089L54.5161 11.319L55.0812 11.206L53.9995 19.6823H51.8521ZM48.1259 34.9083C46.9796 34.9083 45.9705 34.6661 45.0986 34.1817C44.2268 33.692 43.546 33.0085 43.0563 32.1313C42.5719 31.2487 42.3297 30.2154 42.3297 29.0314C42.3297 27.8474 42.58 26.8168 43.0805 25.9396C43.5864 25.057 44.2806 24.3735 45.1632 23.8891C46.0458 23.3994 47.0549 23.1545 48.1905 23.1545C48.7878 23.1545 49.3341 23.2191 49.8292 23.3483C50.3243 23.472 50.7522 23.6281 51.1128 23.8165L50.8867 25.7862C50.4777 25.5978 50.0553 25.4445 49.6193 25.3261C49.1888 25.2023 48.7071 25.1404 48.1743 25.1404C47.3832 25.1404 46.7213 25.3072 46.1885 25.6409C45.661 25.9746 45.2628 26.4347 44.9937 27.0213C44.7246 27.6079 44.5901 28.278 44.5901 29.0314C44.5901 29.7848 44.7219 30.4549 44.9856 31.0415C45.2493 31.6281 45.6422 32.0882 46.1642 32.4219C46.6917 32.7556 47.3455 32.9224 48.1259 32.9224C48.6694 32.9224 49.1565 32.8632 49.587 32.7448C50.0176 32.6264 50.4508 32.4703 50.8867 32.2766L51.1128 34.2463C50.6876 34.4455 50.2194 34.6042 49.7081 34.7226C49.2022 34.8464 48.6748 34.9083 48.1259 34.9083ZM55.9796 34.8437C55.1024 34.8437 54.3544 34.6527 53.7355 34.2705C53.1165 33.8884 52.643 33.3799 52.3147 32.7448C51.9918 32.1098 51.8303 31.4155 51.8303 30.6621C51.8303 29.9032 51.9918 29.2036 52.3147 28.5632C52.643 27.9228 53.1165 27.4115 53.7355 27.0294C54.3544 26.6419 55.1024 26.4482 55.9796 26.4482C56.8569 26.4482 57.6049 26.6419 58.2238 27.0294C58.8427 27.4115 59.3136 27.9228 59.6366 28.5632C59.9648 29.2036 60.129 29.9032 60.129 30.6621C60.129 31.4155 59.9648 32.1098 59.6366 32.7448C59.3136 33.3799 58.8427 33.8884 58.2238 34.2705C57.6049 34.6527 56.8569 34.8437 55.9796 34.8437ZM55.9796 33.1969C56.6524 33.1969 57.169 32.9628 57.5296 32.4946C57.8956 32.021 58.0785 31.4101 58.0785 30.6621C58.0785 29.9032 57.8956 29.287 57.5296 28.8134C57.169 28.3345 56.6524 28.095 55.9796 28.095C55.3123 28.095 54.7957 28.3345 54.4297 28.8134C54.0637 29.287 53.8808 29.9032 53.8808 30.6621C53.8808 31.4101 54.0637 32.021 54.4297 32.4946C54.7957 32.9628 55.3123 33.1969 55.9796 33.1969ZM61.4553 34.6823V26.6096H63.1667L63.2958 27.7882L63.0052 27.433C63.312 27.1908 63.6779 26.9729 64.1031 26.7791C64.5336 26.58 65.0341 26.4804 65.6046 26.4804C66.0351 26.4804 66.4145 26.545 66.7428 26.6742C67.0765 26.798 67.3617 26.9783 67.5985 27.2151C67.8353 27.4465 68.0264 27.7236 68.1717 28.0465L67.6873 27.9335C67.9457 27.4707 68.3224 27.1128 68.8175 26.8599C69.318 26.6069 69.8831 26.4804 70.5128 26.4804C71.2554 26.4804 71.8609 26.6338 72.3291 26.9406C72.7973 27.2473 73.1417 27.6806 73.3624 28.2403C73.583 28.7946 73.6934 29.4458 73.6934 30.1939V34.6823H71.6914V30.3392C71.6914 29.5857 71.573 29.0287 71.3362 28.6681C71.1047 28.3076 70.7173 28.1273 70.1737 28.1273C69.9046 28.1273 69.6678 28.1757 69.4633 28.2726C69.2642 28.3641 69.0974 28.5013 68.9628 28.6843C68.8336 28.8619 68.7368 29.0798 68.6722 29.3382C68.6076 29.5911 68.5753 29.8763 68.5753 30.1939V34.6823H66.5733V30.3392C66.5733 29.8387 66.5195 29.4243 66.4119 29.096C66.3096 28.7677 66.1428 28.5255 65.9113 28.3694C65.6853 28.208 65.3893 28.1273 65.0234 28.1273C64.5551 28.1273 64.1703 28.2376 63.869 28.4582C63.573 28.6735 63.312 28.9668 63.0859 29.3382L63.4573 28.2564V34.6823H61.4553ZM75.4205 38.5894V26.6096H77.035L77.4225 27.9497L76.8251 27.7398C77.1965 27.3577 77.6001 27.0536 78.036 26.8276C78.472 26.5962 79.0048 26.4804 79.6344 26.4804C80.4255 26.4804 81.0902 26.6715 81.6284 27.0536C82.1665 27.4357 82.5729 27.9443 82.8473 28.5793C83.1272 29.2144 83.2671 29.9086 83.2671 30.6621C83.2671 31.4155 83.1272 32.1098 82.8473 32.7448C82.5729 33.3799 82.1665 33.8884 81.6284 34.2705C81.0902 34.6527 80.4255 34.8437 79.6344 34.8437C79.0048 34.8437 78.4935 34.7576 78.1006 34.5854C77.7077 34.4132 77.3095 34.1387 76.9059 33.762L77.4225 33.3583V38.5894H75.4205ZM79.3277 33.1969C79.925 33.1969 80.3879 32.9628 80.7162 32.4946C81.0498 32.021 81.2167 31.4101 81.2167 30.6621C81.2167 29.9086 81.0498 29.2978 80.7162 28.8296C80.3879 28.3614 79.925 28.1273 79.3277 28.1273C78.8648 28.1273 78.4854 28.2349 78.1894 28.4502C77.8934 28.6654 77.6755 28.9641 77.5355 29.3462C77.3956 29.723 77.3256 30.1616 77.3256 30.6621C77.3256 31.1626 77.3956 31.6039 77.5355 31.986C77.6755 32.3627 77.8934 32.6587 78.1894 32.874C78.4854 33.0892 78.8648 33.1969 79.3277 33.1969ZM86.3363 34.8437C85.9058 34.8437 85.5129 34.7495 85.1577 34.5612C84.8025 34.3674 84.52 34.0903 84.3101 33.7297C84.1002 33.3691 83.9952 32.9332 83.9952 32.4219C83.9952 31.9645 84.1002 31.5743 84.3101 31.2514C84.5253 30.9231 84.8052 30.6513 85.1496 30.436C85.4994 30.2154 85.8762 30.0432 86.2798 29.9194C86.6888 29.7902 87.0898 29.696 87.4826 29.6369C87.8809 29.5777 88.2307 29.5427 88.5321 29.5319C88.5105 29.0691 88.3921 28.7327 88.1769 28.5228C87.9616 28.3129 87.5956 28.208 87.079 28.208C86.7184 28.208 86.3659 28.2591 86.0215 28.3614C85.6824 28.4582 85.2976 28.6116 84.8671 28.8215L84.6895 27.1908C85.1738 26.954 85.6582 26.7764 86.1426 26.658C86.6323 26.5396 87.1274 26.4804 87.6279 26.4804C88.2307 26.4804 88.75 26.5881 89.1859 26.8034C89.6219 27.0186 89.9582 27.3657 90.195 27.8447C90.4318 28.3183 90.5502 28.9453 90.5502 29.7256V31.9053C90.5502 32.3089 90.5691 32.6022 90.6067 32.7852C90.6444 32.9628 90.7144 33.0758 90.8166 33.1242C90.9189 33.1727 91.0669 33.1969 91.2606 33.1969H91.5189L91.3413 34.8437H90.6148C90.3134 34.8437 90.0443 34.8033 89.8075 34.7226C89.5761 34.6473 89.377 34.5396 89.2102 34.3997C89.0433 34.2598 88.9088 34.0956 88.8065 33.9073C88.5428 34.2033 88.1849 34.4347 87.7329 34.6015C87.2862 34.763 86.8207 34.8437 86.3363 34.8437ZM87.1759 33.3099C87.3535 33.3099 87.5741 33.2642 87.8378 33.1727C88.1015 33.0758 88.3383 32.9278 88.5482 32.7287V30.8881C88.1715 30.9043 87.7948 30.9661 87.418 31.0738C87.0413 31.1814 86.7265 31.3402 86.4735 31.5501C86.2206 31.76 86.0941 32.0237 86.0941 32.3412C86.0941 32.6695 86.1802 32.9143 86.3525 33.0758C86.5247 33.2319 86.7991 33.3099 87.1759 33.3099ZM92.5665 34.6823V26.6096H94.4393L94.52 28.1111L94.0518 27.4976C94.3586 27.2393 94.7245 27.0052 95.1497 26.7953C95.5749 26.5854 96.07 26.4804 96.6351 26.4804C97.6684 26.4804 98.4353 26.8249 98.9358 27.5137C99.4363 28.1972 99.6865 29.0852 99.6865 30.1777V34.6823H97.6845V30.3392C97.6845 29.5857 97.558 29.0287 97.3051 28.6681C97.0575 28.3076 96.6512 28.1273 96.0861 28.1273C95.6287 28.1273 95.2546 28.2403 94.964 28.4663C94.6734 28.687 94.4178 28.983 94.1971 29.3543L94.5685 28.3694V34.6823H92.5665ZM101.407 34.6823V26.6096H103.409V34.6823H101.407ZM101.407 25.3826V23.3806H103.409V25.3826H101.407ZM108.884 34.8437C108.007 34.8437 107.259 34.6527 106.64 34.2705C106.021 33.8884 105.547 33.3799 105.219 32.7448C104.896 32.1098 104.734 31.4155 104.734 30.6621C104.734 29.9032 104.896 29.2036 105.219 28.5632C105.547 27.9228 106.021 27.4115 106.64 27.0294C107.259 26.6419 108.007 26.4482 108.884 26.4482C109.761 26.4482 110.509 26.6419 111.128 27.0294C111.747 27.4115 112.218 27.9228 112.541 28.5632C112.869 29.2036 113.033 29.9032 113.033 30.6621C113.033 31.4155 112.869 32.1098 112.541 32.7448C112.218 33.3799 111.747 33.8884 111.128 34.2705C110.509 34.6527 109.761 34.8437 108.884 34.8437ZM108.884 33.1969C109.557 33.1969 110.073 32.9628 110.434 32.4946C110.8 32.021 110.983 31.4101 110.983 30.6621C110.983 29.9032 110.8 29.287 110.434 28.8134C110.073 28.3345 109.557 28.095 108.884 28.095C108.216 28.095 107.7 28.3345 107.334 28.8134C106.968 29.287 106.785 29.9032 106.785 30.6621C106.785 31.4101 106.968 32.021 107.334 32.4946C107.7 32.9628 108.216 33.1969 108.884 33.1969ZM114.359 34.6823V26.6096H116.232L116.313 28.1111L115.845 27.4976C116.152 27.2393 116.518 27.0052 116.943 26.7953C117.368 26.5854 117.863 26.4804 118.428 26.4804C119.461 26.4804 120.228 26.8249 120.729 27.5137C121.229 28.1972 121.48 29.0852 121.48 30.1777V34.6823H119.477V30.3392C119.477 29.5857 119.351 29.0287 119.098 28.6681C118.851 28.3076 118.444 28.1273 117.879 28.1273C117.422 28.1273 117.048 28.2403 116.757 28.4663C116.466 28.687 116.211 28.983 115.99 29.3543L116.361 28.3694V34.6823H114.359Z" fill="white"/>
<path d="M34.205 16.6355L38.3991 19.699M35.1725 12.6885C35.6187 15.5816 33.6352 18.2887 30.7421 18.7349C27.8491 19.1812 25.142 17.1976 24.6957 14.3046C24.2495 11.4115 26.233 8.70442 29.1261 8.25816C32.0191 7.8119 34.7262 9.79542 35.1725 12.6885Z" stroke="#8175DF" stroke-width="1.46653" stroke-linecap="round" stroke-linejoin="round"/>
<path d="M22.8271 12.2081C22.7368 12.6622 22.6895 13.1317 22.6895 13.6124C22.6895 17.5651 25.8939 20.7696 29.8467 20.7696C30.301 20.7696 30.745 20.7246 31.1758 20.6436V29.3907L30.6992 29.4356C26.1954 29.8547 22.2904 31.7123 19.2363 34.8897L18.3721 35.7901V16.6524L18.9443 15.8878C19.6748 14.9118 21.1436 13.4409 22.1152 12.7139C22.3503 12.538 22.5883 12.3702 22.8271 12.2081ZM4.47949 9.34772C6.93661 9.59145 9.67988 10.5205 11.7549 11.8145C13.543 12.9295 15.3892 14.6512 16.5664 16.3008L16.8633 16.7159V26.2452C16.8633 31.4858 16.8404 35.7724 16.8135 35.7715C16.7848 35.7698 16.5703 35.5437 16.3359 35.2686C15.0874 33.8028 13.0036 32.2352 10.9854 31.2432C8.94735 30.2415 7.01126 29.685 4.81348 29.4698C4.38211 29.428 4.0236 29.3888 4.01465 29.3829C4.00905 29.382 4.02056 24.8569 4.04297 19.3399L4.08008 9.30865L4.47949 9.34772ZM34.3926 24.5801C34.3926 30.2247 34.3705 34.8441 34.3428 34.8526C34.3148 34.8526 33.9084 34.7657 33.4395 34.6592C31.5866 34.2419 30.0606 34.0983 28.0566 34.1524C25.6259 34.2196 23.7369 34.5591 21.4912 35.335L20.6367 35.6299L21.1621 35.1397C22.9299 33.4813 25.2704 32.1635 27.6211 31.502C28.8512 31.156 30.4508 30.9141 31.5127 30.9141C32.0694 30.9141 32.3785 30.7938 32.5527 30.5079C32.6838 30.2922 32.6853 30.1992 32.6855 22.0596V20.1827C33.3047 19.9148 33.8787 19.5628 34.3926 19.1397V24.5801ZM2.40039 13.793C2.46564 13.7656 2.48242 15.444 2.48242 22.0147C2.48242 30.995 2.46258 30.4954 2.8457 30.7471C2.97905 30.834 3.25663 30.8733 4.04785 30.921C7.19215 31.1003 10.1756 32.1558 12.6113 33.9522C13.1364 34.3395 14.3967 35.4032 14.4697 35.5206C14.5201 35.6018 14.4869 35.5931 13.6777 35.3018L13.6768 35.2989C12.7441 34.965 11.2037 34.5712 10.1641 34.4014C8.75038 34.1717 7.77469 34.1108 6.04199 34.1495C4.32041 34.1859 3.27902 34.3065 1.8584 34.629C1.46189 34.7184 1.05631 34.8103 0.956055 34.8301L0.775391 34.8702V14.2696L1.54688 14.045C1.97102 13.9217 2.35526 13.807 2.40039 13.793Z" fill="#8175DF"/>
<path d="M20.5939 5.04798C20.4293 4.63073 19.8388 4.63074 19.6742 5.04799L19.1643 6.34102C19.114 6.46841 19.0132 6.56925 18.8858 6.61948L17.5928 7.12945C17.1755 7.29401 17.1755 7.88453 17.5928 8.04909L18.8858 8.55905C19.0132 8.60928 19.114 8.71015 19.1643 8.83753L19.6742 10.1305C19.8388 10.5478 20.4293 10.5478 20.5939 10.1305L21.1038 8.83753C21.1541 8.71015 21.2549 8.60928 21.3823 8.55905L22.6753 8.04909C23.0926 7.88453 23.0926 7.29401 22.6753 7.12945L21.3823 6.61948C21.2549 6.56925 21.1541 6.46841 21.1038 6.34102L20.5939 5.04798Z" fill="#8175DF"/>
<path d="M16.4343 9.7382C16.3438 9.50898 16.0194 9.50898 15.929 9.7382L15.5336 10.7408C15.506 10.8108 15.4506 10.8662 15.3805 10.8938L14.3779 11.2892C14.1487 11.3797 14.1487 11.7041 14.3779 11.7945L15.3805 12.1899C15.4506 12.2175 15.506 12.273 15.5336 12.343L15.929 13.3456C16.0194 13.5748 16.3438 13.5748 16.4343 13.3456L16.8297 12.343C16.8573 12.273 16.9127 12.2175 16.9827 12.1899L17.9853 11.7945C18.2145 11.7041 18.2145 11.3797 17.9853 11.2892L16.9827 10.8938C16.9127 10.8662 16.8573 10.8108 16.8297 10.7408L16.4343 9.7382Z" fill="#8175DF"/>
</svg>
