<svg width="1004" height="322" viewBox="0 0 1004 322" fill="none" xmlns="http://www.w3.org/2000/svg">
<path d="M368.893 159V75H398.773C405.213 75 410.653 75.96 415.093 77.88C419.533 79.8 422.893 82.76 425.173 86.76C427.493 90.76 428.653 95.88 428.653 102.12C428.653 108.44 427.513 113.66 425.233 117.78C422.953 121.86 419.613 124.9 415.213 126.9C410.813 128.86 405.453 129.84 399.133 129.84H384.253V159H368.893ZM384.253 117H397.333C402.573 117 406.493 115.82 409.093 113.46C411.733 111.1 413.053 107.4 413.053 102.36C413.053 97.32 411.713 93.64 409.033 91.32C406.393 89 402.373 87.84 396.973 87.84H384.253V117ZM434.628 159L446.268 75H458.868L479.388 113.28L499.788 75H512.388L524.028 159H508.068L500.028 95.88L504.228 96.72L479.388 141.36L454.428 96.84L458.628 96L450.588 159H434.628ZM406.933 270.68C398.413 270.68 390.913 268.88 384.433 265.28C377.953 261.64 372.893 256.56 369.253 250.04C365.653 243.48 363.853 235.8 363.853 227C363.853 218.2 365.713 210.54 369.433 204.02C373.193 197.46 378.353 192.38 384.913 188.78C391.473 185.14 398.973 183.32 407.413 183.32C411.853 183.32 415.913 183.8 419.593 184.76C423.273 185.68 426.453 186.84 429.133 188.24L427.453 202.88C424.413 201.48 421.273 200.34 418.033 199.46C414.833 198.54 411.253 198.08 407.293 198.08C401.413 198.08 396.493 199.32 392.533 201.8C388.613 204.28 385.653 207.7 383.653 212.06C381.653 216.42 380.653 221.4 380.653 227C380.653 232.6 381.633 237.58 383.593 241.94C385.553 246.3 388.473 249.72 392.353 252.2C396.273 254.68 401.133 255.92 406.933 255.92C410.973 255.92 414.593 255.48 417.793 254.6C420.993 253.72 424.213 252.56 427.453 251.12L429.133 265.76C425.973 267.24 422.493 268.42 418.693 269.3C414.933 270.22 411.013 270.68 406.933 270.68ZM465.306 270.2C458.786 270.2 453.226 268.78 448.626 265.94C444.026 263.1 440.506 259.32 438.066 254.6C435.666 249.88 434.466 244.72 434.466 239.12C434.466 233.48 435.666 228.28 438.066 223.52C440.506 218.76 444.026 214.96 448.626 212.12C453.226 209.24 458.786 207.8 465.306 207.8C471.826 207.8 477.386 209.24 481.986 212.12C486.586 214.96 490.086 218.76 492.486 223.52C494.926 228.28 496.146 233.48 496.146 239.12C496.146 244.72 494.926 249.88 492.486 254.6C490.086 259.32 486.586 263.1 481.986 265.94C477.386 268.78 471.826 270.2 465.306 270.2ZM465.306 257.96C470.306 257.96 474.146 256.22 476.826 252.74C479.546 249.22 480.906 244.68 480.906 239.12C480.906 233.48 479.546 228.9 476.826 225.38C474.146 221.82 470.306 220.04 465.306 220.04C460.346 220.04 456.506 221.82 453.786 225.38C451.066 228.9 449.706 233.48 449.706 239.12C449.706 244.68 451.066 249.22 453.786 252.74C456.506 256.22 460.346 257.96 465.306 257.96ZM506.003 269V209H518.723L519.683 217.76L517.523 215.12C519.803 213.32 522.523 211.7 525.683 210.26C528.883 208.78 532.603 208.04 536.843 208.04C540.043 208.04 542.863 208.52 545.303 209.48C547.783 210.4 549.903 211.74 551.663 213.5C553.423 215.22 554.843 217.28 555.923 219.68L552.323 218.84C554.243 215.4 557.043 212.74 560.723 210.86C564.443 208.98 568.643 208.04 573.323 208.04C578.843 208.04 583.343 209.18 586.823 211.46C590.303 213.74 592.863 216.96 594.503 221.12C596.143 225.24 596.963 230.08 596.963 235.64V269H582.083V236.72C582.083 231.12 581.203 226.98 579.443 224.3C577.723 221.62 574.843 220.28 570.803 220.28C568.803 220.28 567.043 220.64 565.523 221.36C564.043 222.04 562.803 223.06 561.803 224.42C560.843 225.74 560.123 227.36 559.643 229.28C559.163 231.16 558.923 233.28 558.923 235.64V269H544.043V236.72C544.043 233 543.643 229.92 542.843 227.48C542.083 225.04 540.843 223.24 539.123 222.08C537.443 220.88 535.243 220.28 532.523 220.28C529.043 220.28 526.183 221.1 523.943 222.74C521.743 224.34 519.803 226.52 518.123 229.28L520.883 221.24V269H506.003ZM609.8 298.04V209H621.8L624.68 218.96L620.24 217.4C623 214.56 626 212.3 629.24 210.62C632.48 208.9 636.44 208.04 641.12 208.04C647 208.04 651.94 209.46 655.94 212.3C659.94 215.14 662.96 218.92 665 223.64C667.08 228.36 668.12 233.52 668.12 239.12C668.12 244.72 667.08 249.88 665 254.6C662.96 259.32 659.94 263.1 655.94 265.94C651.94 268.78 647 270.2 641.12 270.2C636.44 270.2 632.64 269.56 629.72 268.28C626.8 267 623.84 264.96 620.84 262.16L624.68 259.16V298.04H609.8ZM638.84 257.96C643.28 257.96 646.72 256.22 649.16 252.74C651.64 249.22 652.88 244.68 652.88 239.12C652.88 233.52 651.64 228.98 649.16 225.5C646.72 222.02 643.28 220.28 638.84 220.28C635.4 220.28 632.58 221.08 630.38 222.68C628.18 224.28 626.56 226.5 625.52 229.34C624.48 232.14 623.96 235.4 623.96 239.12C623.96 242.84 624.48 246.12 625.52 248.96C626.56 251.76 628.18 253.96 630.38 255.56C632.58 257.16 635.4 257.96 638.84 257.96ZM690.932 270.2C687.732 270.2 684.812 269.5 682.172 268.1C679.532 266.66 677.432 264.6 675.872 261.92C674.312 259.24 673.532 256 673.532 252.2C673.532 248.8 674.312 245.9 675.872 243.5C677.472 241.06 679.552 239.04 682.112 237.44C684.712 235.8 687.512 234.52 690.512 233.6C693.552 232.64 696.532 231.94 699.452 231.5C702.412 231.06 705.012 230.8 707.252 230.72C707.092 227.28 706.212 224.78 704.612 223.22C703.012 221.66 700.292 220.88 696.452 220.88C693.772 220.88 691.152 221.26 688.592 222.02C686.072 222.74 683.212 223.88 680.012 225.44L678.692 213.32C682.292 211.56 685.892 210.24 689.492 209.36C693.132 208.48 696.812 208.04 700.532 208.04C705.012 208.04 708.872 208.84 712.112 210.44C715.352 212.04 717.852 214.62 719.612 218.18C721.372 221.7 722.252 226.36 722.252 232.16V248.36C722.252 251.36 722.392 253.54 722.672 254.9C722.952 256.22 723.472 257.06 724.232 257.42C724.992 257.78 726.092 257.96 727.532 257.96H729.452L728.132 270.2H722.732C720.492 270.2 718.492 269.9 716.732 269.3C715.012 268.74 713.532 267.94 712.292 266.9C711.052 265.86 710.052 264.64 709.292 263.24C707.332 265.44 704.672 267.16 701.312 268.4C697.992 269.6 694.532 270.2 690.932 270.2ZM697.172 258.8C698.492 258.8 700.132 258.46 702.092 257.78C704.052 257.06 705.812 255.96 707.372 254.48V240.8C704.572 240.92 701.772 241.38 698.972 242.18C696.172 242.98 693.832 244.16 691.952 245.72C690.072 247.28 689.132 249.24 689.132 251.6C689.132 254.04 689.772 255.86 691.052 257.06C692.332 258.22 694.372 258.8 697.172 258.8ZM737.238 269V209H751.158L751.758 220.16L748.278 215.6C750.558 213.68 753.278 211.94 756.438 210.38C759.598 208.82 763.278 208.04 767.478 208.04C775.158 208.04 780.858 210.6 784.578 215.72C788.298 220.8 790.158 227.4 790.158 235.52V269H775.278V236.72C775.278 231.12 774.338 226.98 772.458 224.3C770.618 221.62 767.598 220.28 763.398 220.28C759.998 220.28 757.218 221.12 755.058 222.8C752.898 224.44 750.998 226.64 749.358 229.4L752.118 222.08V269H737.238ZM802.949 269V209H817.829V269H802.949ZM802.949 199.88V185H817.829V199.88H802.949ZM858.517 270.2C851.997 270.2 846.437 268.78 841.837 265.94C837.237 263.1 833.717 259.32 831.277 254.6C828.877 249.88 827.677 244.72 827.677 239.12C827.677 233.48 828.877 228.28 831.277 223.52C833.717 218.76 837.237 214.96 841.837 212.12C846.437 209.24 851.997 207.8 858.517 207.8C865.037 207.8 870.597 209.24 875.197 212.12C879.797 214.96 883.297 218.76 885.697 223.52C888.137 228.28 889.357 233.48 889.357 239.12C889.357 244.72 888.137 249.88 885.697 254.6C883.297 259.32 879.797 263.1 875.197 265.94C870.597 268.78 865.037 270.2 858.517 270.2ZM858.517 257.96C863.517 257.96 867.357 256.22 870.037 252.74C872.757 249.22 874.117 244.68 874.117 239.12C874.117 233.48 872.757 228.9 870.037 225.38C867.357 221.82 863.517 220.04 858.517 220.04C853.557 220.04 849.717 221.82 846.997 225.38C844.277 228.9 842.917 233.48 842.917 239.12C842.917 244.68 844.277 249.22 846.997 252.74C849.717 256.22 853.557 257.96 858.517 257.96ZM899.214 269V209H913.134L913.734 220.16L910.254 215.6C912.534 213.68 915.254 211.94 918.414 210.38C921.574 208.82 925.254 208.04 929.454 208.04C937.134 208.04 942.834 210.6 946.554 215.72C950.274 220.8 952.134 227.4 952.134 235.52V269H937.254V236.72C937.254 231.12 936.314 226.98 934.434 224.3C932.594 221.62 929.574 220.28 925.374 220.28C921.974 220.28 919.194 221.12 917.034 222.8C914.874 224.44 912.974 226.64 911.334 229.4L914.094 222.08V269H899.214Z" fill="white"/>
<path d="M303.477 134.983L334.653 157.755M310.668 105.644C313.986 127.149 299.241 147.271 277.736 150.588C256.231 153.906 236.109 139.161 232.792 117.656C229.475 96.1513 244.219 76.0289 265.724 72.7116C287.229 69.3945 307.351 84.1386 310.668 105.644Z" stroke="#8175DF" stroke-width="10.9" stroke-linecap="round" stroke-linejoin="round"/>
<path d="M218.911 102.051C218.237 105.434 217.882 108.932 217.882 112.513C217.882 141.895 241.701 165.714 271.083 165.714C274.456 165.714 277.755 165.399 280.953 164.799V229.778L277.415 230.111C243.939 233.226 214.917 247.038 192.217 270.654L185.789 277.342V135.099L190.042 129.417C195.472 122.162 206.394 111.233 213.615 105.83C215.367 104.519 217.132 103.259 218.911 102.051ZM82.5352 80.8112C100.798 82.6227 121.182 89.5234 136.604 99.1412C149.896 107.429 163.622 120.226 172.372 132.488L174.574 135.574V206.399C174.574 245.328 174.408 277.178 174.208 277.21C174 277.203 172.405 275.518 170.66 273.469C161.38 262.573 145.889 250.919 130.887 243.546C115.738 236.1 101.349 231.964 85.0127 230.365C81.7917 230.053 79.1208 229.761 79.0781 229.719C79.0371 229.587 79.1199 196.009 79.2861 155.081L79.5615 80.5201L82.5352 80.8112ZM304.866 194.022C304.866 236.001 304.7 270.35 304.494 270.376C304.286 270.376 301.268 269.729 297.783 268.938C284.011 265.836 272.669 264.77 257.773 265.172C239.706 265.671 225.663 268.191 208.971 273.959L202.626 276.151L206.53 272.507C219.669 260.181 237.063 250.385 254.535 245.469C263.678 242.898 275.568 241.103 283.461 241.103C287.599 241.103 289.895 240.208 291.189 238.082C292.164 236.479 292.174 235.785 292.176 175.289V161.368C296.779 159.378 301.046 156.757 304.866 153.613V194.022ZM67.0791 113.848C67.5643 113.64 67.6895 126.113 67.6895 174.96C67.6895 241.709 67.5435 237.988 70.3916 239.86C71.3827 240.505 73.4418 240.797 79.3223 241.151C102.694 242.484 124.872 250.332 142.977 263.685C146.881 266.565 156.251 274.473 156.788 275.341C157.163 275.945 156.912 275.883 150.896 273.717L150.896 273.694C143.963 271.212 132.515 268.287 124.786 267.025C114.278 265.318 107.028 264.864 94.1484 265.151C81.3516 265.422 73.6109 266.317 63.0518 268.714C60.0992 269.38 57.079 270.067 56.3408 270.213L55 270.505L55.002 193.947L55.0049 117.387L60.7373 115.722C63.8897 114.806 66.7436 113.952 67.0791 113.848Z" fill="#8175DF"/>
<path d="M202.299 48.8549C201.076 45.7531 196.686 45.7531 195.463 48.855L191.672 58.4673C191.298 59.4143 190.548 60.1639 189.601 60.5374L179.989 64.3284C176.887 65.5518 176.887 69.9416 179.989 71.165L189.601 74.956C190.548 75.3294 191.298 76.0792 191.672 77.0262L195.463 86.6383C196.686 89.7404 201.076 89.7404 202.299 86.6383L206.09 77.0262C206.464 76.0792 207.213 75.3294 208.16 74.956L217.773 71.165C220.875 69.9416 220.875 65.5518 217.773 64.3284L208.16 60.5374C207.213 60.1639 206.464 59.4143 206.09 58.4673L202.299 48.8549Z" fill="#8175DF"/>
<path d="M171.38 83.7146C170.708 82.0103 168.295 82.0103 167.623 83.7146L164.683 91.1693C164.478 91.69 164.066 92.1019 163.545 92.3073L156.09 95.2471C154.386 95.9196 154.386 98.3319 156.09 99.0043L163.545 101.944C164.066 102.15 164.478 102.561 164.683 103.082L167.623 110.537C168.295 112.241 170.708 112.241 171.38 110.537L174.32 103.082C174.525 102.561 174.937 102.15 175.458 101.944L182.913 99.0043C184.617 98.3319 184.617 95.9196 182.913 95.2471L175.458 92.3073C174.937 92.1019 174.525 91.69 174.32 91.1693L171.38 83.7146Z" fill="#8175DF"/>
</svg>
