<svg width="1319" height="495" viewBox="0 0 1319 495" fill="none" xmlns="http://www.w3.org/2000/svg">
<path d="M16.4 446V306H66.2C76.9333 306 86 307.6 93.4 310.8C100.8 314 106.4 318.933 110.2 325.6C114.067 332.267 116 340.8 116 351.2C116 361.733 114.1 370.433 110.3 377.3C106.5 384.1 100.933 389.167 93.6 392.5C86.2667 395.767 77.3333 397.4 66.8 397.4H42V446H16.4ZM42 376H63.8C72.5333 376 79.0667 374.033 83.4 370.1C87.8 366.167 90 360 90 351.6C90 343.2 87.7667 337.067 83.3 333.2C78.9 329.333 72.2 327.4 63.2 327.4H42V376ZM126.292 446L145.692 306H166.692L200.892 369.8L234.892 306H255.892L275.292 446H248.692L235.292 340.8L242.292 342.2L200.892 416.6L159.292 342.4L166.292 341L152.892 446H126.292ZM406.816 448.8C392.616 448.8 380.116 445.8 369.316 439.8C358.516 433.733 350.082 425.267 344.016 414.4C338.016 403.467 335.016 390.667 335.016 376C335.016 361.333 338.116 348.567 344.316 337.7C350.582 326.767 359.182 318.3 370.116 312.3C381.049 306.233 393.549 303.2 407.616 303.2C415.016 303.2 421.782 304 427.916 305.6C434.049 307.133 439.349 309.067 443.816 311.4L441.016 335.8C435.949 333.467 430.716 331.567 425.316 330.1C419.982 328.567 414.016 327.8 407.416 327.8C397.616 327.8 389.416 329.867 382.816 334C376.282 338.133 371.349 343.833 368.016 351.1C364.682 358.367 363.016 366.667 363.016 376C363.016 385.333 364.649 393.633 367.916 400.9C371.182 408.167 376.049 413.867 382.516 418C389.049 422.133 397.149 424.2 406.816 424.2C413.549 424.2 419.582 423.467 424.916 422C430.249 420.533 435.616 418.6 441.016 416.2L443.816 440.6C438.549 443.067 432.749 445.033 426.416 446.5C420.149 448.033 413.616 448.8 406.816 448.8ZM504.438 448C493.571 448 484.304 445.633 476.638 440.9C468.971 436.167 463.104 429.867 459.038 422C455.038 414.133 453.038 405.533 453.038 396.2C453.038 386.8 455.038 378.133 459.038 370.2C463.104 362.267 468.971 355.933 476.638 351.2C484.304 346.4 493.571 344 504.438 344C515.304 344 524.571 346.4 532.238 351.2C539.904 355.933 545.738 362.267 549.738 370.2C553.804 378.133 555.838 386.8 555.838 396.2C555.838 405.533 553.804 414.133 549.738 422C545.738 429.867 539.904 436.167 532.238 440.9C524.571 445.633 515.304 448 504.438 448ZM504.438 427.6C512.771 427.6 519.171 424.7 523.638 418.9C528.171 413.033 530.438 405.467 530.438 396.2C530.438 386.8 528.171 379.167 523.638 373.3C519.171 367.367 512.771 364.4 504.438 364.4C496.171 364.4 489.771 367.367 485.238 373.3C480.704 379.167 478.438 386.8 478.438 396.2C478.438 405.467 480.704 413.033 485.238 418.9C489.771 424.7 496.171 427.6 504.438 427.6ZM572.6 446V346H593.8L595.4 360.6L591.8 356.2C595.6 353.2 600.133 350.5 605.4 348.1C610.733 345.633 616.933 344.4 624 344.4C629.333 344.4 634.033 345.2 638.1 346.8C642.233 348.333 645.767 350.567 648.7 353.5C651.633 356.367 654 359.8 655.8 363.8L649.8 362.4C653 356.667 657.667 352.233 663.8 349.1C670 345.967 677 344.4 684.8 344.4C694 344.4 701.5 346.3 707.3 350.1C713.1 353.9 717.367 359.267 720.1 366.2C722.833 373.067 724.2 381.133 724.2 390.4V446H699.4V392.2C699.4 382.867 697.933 375.967 695 371.5C692.133 367.033 687.333 364.8 680.6 364.8C677.267 364.8 674.333 365.4 671.8 366.6C669.333 367.733 667.267 369.433 665.6 371.7C664 373.9 662.8 376.6 662 379.8C661.2 382.933 660.8 386.467 660.8 390.4V446H636V392.2C636 386 635.333 380.867 634 376.8C632.733 372.733 630.667 369.733 627.8 367.8C625 365.8 621.333 364.8 616.8 364.8C611 364.8 606.233 366.167 602.5 368.9C598.833 371.567 595.6 375.2 592.8 379.8L597.4 366.4V446H572.6ZM745.928 494.4V346H765.928L770.728 362.6L763.328 360C767.928 355.267 772.928 351.5 778.328 348.7C783.728 345.833 790.328 344.4 798.128 344.4C807.928 344.4 816.161 346.767 822.828 351.5C829.495 356.233 834.528 362.533 837.928 370.4C841.395 378.267 843.128 386.867 843.128 396.2C843.128 405.533 841.395 414.133 837.928 422C834.528 429.867 829.495 436.167 822.828 440.9C816.161 445.633 807.928 448 798.128 448C790.328 448 783.995 446.933 779.128 444.8C774.261 442.667 769.328 439.267 764.328 434.6L770.728 429.6V494.4H745.928ZM794.328 427.6C801.728 427.6 807.461 424.7 811.528 418.9C815.661 413.033 817.728 405.467 817.728 396.2C817.728 386.867 815.661 379.3 811.528 373.5C807.461 367.7 801.728 364.8 794.328 364.8C788.595 364.8 783.895 366.133 780.228 368.8C776.561 371.467 773.861 375.167 772.128 379.9C770.395 384.567 769.528 390 769.528 396.2C769.528 402.4 770.395 407.867 772.128 412.6C773.861 417.267 776.561 420.933 780.228 423.6C783.895 426.267 788.595 427.6 794.328 427.6ZM881.481 448C876.148 448 871.281 446.833 866.881 444.5C862.481 442.1 858.981 438.667 856.381 434.2C853.781 429.733 852.481 424.333 852.481 418C852.481 412.333 853.781 407.5 856.381 403.5C859.048 399.433 862.515 396.067 866.781 393.4C871.115 390.667 875.781 388.533 880.781 387C885.848 385.4 890.815 384.233 895.681 383.5C900.615 382.767 904.948 382.333 908.681 382.2C908.415 376.467 906.948 372.3 904.281 369.7C901.615 367.1 897.081 365.8 890.681 365.8C886.215 365.8 881.848 366.433 877.581 367.7C873.381 368.9 868.615 370.8 863.281 373.4L861.081 353.2C867.081 350.267 873.081 348.067 879.081 346.6C885.148 345.133 891.281 344.4 897.481 344.4C904.948 344.4 911.381 345.733 916.781 348.4C922.181 351.067 926.348 355.367 929.281 361.3C932.215 367.167 933.681 374.933 933.681 384.6V411.6C933.681 416.6 933.915 420.233 934.381 422.5C934.848 424.7 935.715 426.1 936.981 426.7C938.248 427.3 940.081 427.6 942.481 427.6H945.681L943.481 448H934.481C930.748 448 927.415 447.5 924.481 446.5C921.615 445.567 919.148 444.233 917.081 442.5C915.015 440.767 913.348 438.733 912.081 436.4C908.815 440.067 904.381 442.933 898.781 445C893.248 447 887.481 448 881.481 448ZM891.881 429C894.081 429 896.815 428.433 900.081 427.3C903.348 426.1 906.281 424.267 908.881 421.8V399C904.215 399.2 899.548 399.967 894.881 401.3C890.215 402.633 886.315 404.6 883.181 407.2C880.048 409.8 878.481 413.067 878.481 417C878.481 421.067 879.548 424.1 881.681 426.1C883.815 428.033 887.215 429 891.881 429ZM958.991 446V346H982.191L983.191 364.6L977.391 357C981.191 353.8 985.724 350.9 990.991 348.3C996.257 345.7 1002.39 344.4 1009.39 344.4C1022.19 344.4 1031.69 348.667 1037.89 357.2C1044.09 365.667 1047.19 376.667 1047.19 390.2V446H1022.39V392.2C1022.39 382.867 1020.82 375.967 1017.69 371.5C1014.62 367.033 1009.59 364.8 1002.59 364.8C996.924 364.8 992.291 366.2 988.691 369C985.091 371.733 981.924 375.4 979.191 380L983.791 367.8V446H958.991ZM1068.84 446V346H1093.64V446H1068.84ZM1068.84 330.8V306H1093.64V330.8H1068.84ZM1161.79 448C1150.92 448 1141.66 445.633 1133.99 440.9C1126.32 436.167 1120.46 429.867 1116.39 422C1112.39 414.133 1110.39 405.533 1110.39 396.2C1110.39 386.8 1112.39 378.133 1116.39 370.2C1120.46 362.267 1126.32 355.933 1133.99 351.2C1141.66 346.4 1150.92 344 1161.79 344C1172.66 344 1181.92 346.4 1189.59 351.2C1197.26 355.933 1203.09 362.267 1207.09 370.2C1211.16 378.133 1213.19 386.8 1213.19 396.2C1213.19 405.533 1211.16 414.133 1207.09 422C1203.09 429.867 1197.26 436.167 1189.59 440.9C1181.92 445.633 1172.66 448 1161.79 448ZM1161.79 427.6C1170.12 427.6 1176.52 424.7 1180.99 418.9C1185.52 413.033 1187.79 405.467 1187.79 396.2C1187.79 386.8 1185.52 379.167 1180.99 373.3C1176.52 367.367 1170.12 364.4 1161.79 364.4C1153.52 364.4 1147.12 367.367 1142.59 373.3C1138.06 379.167 1135.79 386.8 1135.79 396.2C1135.79 405.467 1138.06 413.033 1142.59 418.9C1147.12 424.7 1153.52 427.6 1161.79 427.6ZM1229.95 446V346H1253.15L1254.15 364.6L1248.35 357C1252.15 353.8 1256.68 350.9 1261.95 348.3C1267.22 345.7 1273.35 344.4 1280.35 344.4C1293.15 344.4 1302.65 348.667 1308.85 357.2C1315.05 365.667 1318.15 376.667 1318.15 390.2V446H1293.35V392.2C1293.35 382.867 1291.78 375.967 1288.65 371.5C1285.58 367.033 1280.55 364.8 1273.55 364.8C1267.88 364.8 1263.25 366.2 1259.65 369C1256.05 371.733 1252.88 375.4 1250.15 380L1254.75 367.8V446H1229.95Z" fill="#110D3F"/>
<path d="M262.477 127.983L293.653 150.755M269.669 98.6437C272.986 120.149 258.241 140.271 236.737 143.588C215.231 146.906 195.109 132.161 191.792 110.656C188.475 89.1513 203.219 69.0289 224.724 65.7116C246.229 62.3945 266.351 77.1386 269.669 98.6437Z" stroke="#A38FFF" stroke-width="10.9" stroke-linecap="round" stroke-linejoin="round"/>
<path d="M177.911 95.0514C177.237 98.4341 176.882 101.932 176.882 105.513C176.882 134.895 200.701 158.714 230.083 158.714C233.456 158.714 236.755 158.399 239.953 157.799V222.778L236.415 223.111C202.939 226.226 173.917 240.038 151.217 263.654L144.789 270.342V128.099L149.042 122.417C154.472 115.162 165.394 104.233 172.615 98.8297C174.367 97.5188 176.132 96.2593 177.911 95.0514ZM41.5352 73.8112C59.7979 75.6227 80.1818 82.5235 95.6045 92.1413C108.896 100.429 122.622 113.226 131.372 125.488L133.574 128.574V199.399C133.574 238.328 133.408 270.178 133.208 270.21C133 270.203 131.405 268.518 129.66 266.469C120.38 255.573 104.889 243.919 89.8867 236.546C74.7382 229.1 60.3491 224.964 44.0127 223.365C40.7917 223.053 38.1208 222.761 38.0781 222.719C38.0371 222.587 38.1199 189.009 38.2861 148.081L38.5615 73.5202L41.5352 73.8112ZM263.866 187.022C263.866 229.001 263.7 263.35 263.494 263.376C263.286 263.376 260.268 262.729 256.783 261.938C243.011 258.836 231.669 257.77 216.773 258.172C198.706 258.671 184.663 261.191 167.971 266.959L161.626 269.151L165.53 265.507C178.669 253.181 196.063 243.385 213.535 238.469C222.678 235.898 234.568 234.103 242.461 234.103C246.599 234.103 248.895 233.208 250.189 231.082C251.164 229.479 251.174 228.785 251.176 168.289V154.368C255.779 152.378 260.046 149.757 263.866 146.613V187.022ZM26.0791 106.848C26.5643 106.64 26.6895 119.113 26.6895 167.96C26.6895 234.709 26.5435 230.988 29.3916 232.86C30.3827 233.505 32.4418 233.797 38.3223 234.151C61.6944 235.484 83.8716 243.332 101.977 256.685C105.881 259.565 115.251 267.473 115.788 268.341C116.163 268.945 115.912 268.883 109.896 266.717L109.896 266.694C102.963 264.212 91.5147 261.287 83.7861 260.025C73.2776 258.318 66.0277 257.864 53.1484 258.151C40.3516 258.422 32.6109 259.317 22.0518 261.714C19.0992 262.38 16.079 263.067 15.3408 263.213L14 263.505L14.002 186.947L14.0049 110.387L19.7373 108.722C22.8897 107.806 25.7436 106.952 26.0791 106.848Z" fill="#A38FFF"/>
<path d="M161.299 41.8549C160.076 38.7531 155.686 38.7531 154.463 41.8549L150.672 51.4672C150.298 52.4142 149.548 53.1639 148.601 53.5373L138.989 57.3284C135.887 58.5517 135.887 62.9416 138.989 64.1649L148.601 67.9559C149.548 68.3294 150.298 69.0792 150.672 70.0262L154.463 79.6383C155.686 82.7404 160.076 82.7404 161.299 79.6383L165.09 70.0262C165.464 69.0792 166.213 68.3294 167.16 67.9559L176.773 64.1649C179.875 62.9416 179.875 58.5517 176.773 57.3284L167.16 53.5373C166.213 53.1639 165.464 52.4142 165.09 51.4672L161.299 41.8549Z" fill="#A38FFF"/>
<path d="M130.38 76.7146C129.708 75.0103 127.295 75.0103 126.623 76.7146L123.683 84.1693C123.478 84.69 123.066 85.1019 122.545 85.3073L115.09 88.2471C113.386 88.9196 113.386 91.3319 115.09 92.0043L122.545 94.9442C123.066 95.1495 123.478 95.5615 123.683 96.0821L126.623 103.537C127.295 105.241 129.708 105.241 130.38 103.537L133.32 96.0821C133.525 95.5615 133.937 95.1495 134.458 94.9442L141.913 92.0043C143.617 91.3319 143.617 88.9196 141.913 88.2471L134.458 85.3073C133.937 85.1019 133.525 84.69 133.32 84.1693L130.38 76.7146Z" fill="#A38FFF"/>
</svg>
