<svg width="1717" height="257" viewBox="0 0 1717 257" fill="none" xmlns="http://www.w3.org/2000/svg">
<path d="M288.477 94.9832L319.653 117.755M295.668 65.6437C298.986 87.1486 284.241 107.271 262.736 110.588C241.231 113.906 221.109 99.1613 217.792 77.6564C214.475 56.1513 229.219 36.0289 250.724 32.7117C272.229 29.3945 292.351 44.1386 295.668 65.6437Z" stroke="#A38FFF" stroke-width="10.9" stroke-linecap="round" stroke-linejoin="round"/>
<path d="M203.911 62.0515C203.237 65.4342 202.882 68.9324 202.882 72.5134C202.882 101.895 226.701 125.715 256.083 125.715C259.456 125.715 262.755 125.4 265.953 124.8V189.778L262.415 190.111C228.939 193.226 199.917 207.038 177.217 230.654L170.789 237.343V95.0994L175.042 89.4167C180.472 82.1623 191.394 71.2332 198.615 65.8298C200.367 64.5189 202.132 63.2594 203.911 62.0515ZM67.5352 40.8113C85.7979 42.6228 106.182 49.5236 121.604 59.1414C134.896 67.4286 148.622 80.2258 157.372 92.488L159.574 95.574V166.399C159.574 205.328 159.408 237.178 159.208 237.21C159 237.203 157.405 235.518 155.66 233.469C146.38 222.573 130.889 210.919 115.887 203.546C100.738 196.1 86.3491 191.964 70.0127 190.365C66.7917 190.053 64.1208 189.761 64.0781 189.719C64.0371 189.587 64.1199 156.009 64.2861 115.081L64.5615 40.5203L67.5352 40.8113ZM289.866 154.022C289.866 196.001 289.7 230.35 289.494 230.376C289.286 230.376 286.268 229.729 282.783 228.938C269.011 225.836 257.669 224.77 242.773 225.172C224.706 225.671 210.663 228.191 193.971 233.959L187.626 236.151L191.53 232.508C204.669 220.181 222.063 210.386 239.535 205.469C248.678 202.898 260.568 201.103 268.461 201.103C272.599 201.103 274.895 200.208 276.189 198.082C277.164 196.479 277.174 195.785 277.176 135.289V121.368C281.779 119.378 286.046 116.757 289.866 113.613V154.022ZM52.0791 73.8484C52.5643 73.6402 52.6895 86.1127 52.6895 134.96C52.6895 201.709 52.5435 197.988 55.3916 199.86C56.3827 200.506 58.4418 200.797 64.3223 201.151C87.6944 202.484 109.872 210.332 127.977 223.685C131.881 226.565 141.251 234.473 141.788 235.342C142.163 235.945 141.912 235.883 135.896 233.718L135.896 233.694C128.963 231.212 117.515 228.287 109.786 227.025C99.2776 225.318 92.0277 224.864 79.1484 225.151C66.3516 225.422 58.6109 226.317 48.0518 228.714C45.0992 229.38 42.079 230.067 41.3408 230.213L40 230.505L40.002 153.947L40.0049 77.3875L45.7373 75.7224C48.8897 74.8063 51.7436 73.9525 52.0791 73.8484Z" fill="#A38FFF"/>
<path d="M187.299 8.85492C186.076 5.75309 181.686 5.75312 180.463 8.85495L176.672 18.4673C176.298 19.4143 175.548 20.1639 174.601 20.5374L164.989 24.3284C161.887 25.5518 161.887 29.9416 164.989 31.165L174.601 34.956C175.548 35.3294 176.298 36.0792 176.672 37.0262L180.463 46.6383C181.686 49.7404 186.076 49.7404 187.299 46.6383L191.09 37.0262C191.464 36.0792 192.213 35.3294 193.16 34.956L202.773 31.165C205.875 29.9416 205.875 25.5518 202.773 24.3284L193.16 20.5374C192.213 20.1639 191.464 19.4143 191.09 18.4673L187.299 8.85492Z" fill="#A38FFF"/>
<path d="M156.38 43.7145C155.708 42.0102 153.295 42.0102 152.623 43.7145L149.683 51.1692C149.478 51.6899 149.066 52.1019 148.545 52.3072L141.09 55.247C139.386 55.9195 139.386 58.3318 141.09 59.0043L148.545 61.9441C149.066 62.1495 149.478 62.5614 149.683 63.0821L152.623 70.5368C153.295 72.2411 155.708 72.2411 156.38 70.5368L159.32 63.0821C159.525 62.5614 159.937 62.1495 160.458 61.9441L167.913 59.0043C169.617 58.3318 169.617 55.9195 167.913 55.247L160.458 52.3072C159.937 52.1019 159.525 51.6899 159.32 51.1692L156.38 43.7145Z" fill="#A38FFF"/>
<path d="M375.052 208V68H424.852C435.586 68 444.652 69.6 452.052 72.7999C459.452 76 465.052 80.9333 468.852 87.5999C472.719 94.2666 474.652 102.8 474.652 113.2C474.652 123.733 472.752 132.433 468.952 139.3C465.152 146.1 459.586 151.167 452.252 154.5C444.919 157.767 435.986 159.4 425.452 159.4H400.652V208H375.052ZM400.652 138H422.452C431.186 138 437.719 136.033 442.052 132.1C446.452 128.167 448.652 122 448.652 113.6C448.652 105.2 446.419 99.0666 441.952 95.2C437.552 91.3333 430.852 89.4 421.852 89.4H400.652V138Z" fill="#110D3F"/>
<path d="M554.293 210.8C540.96 210.8 529.093 207.8 518.693 201.8C508.293 195.733 500.126 187.267 494.193 176.4C488.26 165.467 485.293 152.667 485.293 138C485.293 123.333 488.26 110.567 494.193 99.7C500.126 88.7666 508.293 80.3 518.693 74.3C529.093 68.2333 540.96 65.2 554.293 65.2C567.626 65.2 579.493 68.2333 589.893 74.3C600.293 80.3 608.46 88.7666 614.393 99.7C620.326 110.567 623.293 123.333 623.293 138C623.293 152.667 620.326 165.467 614.393 176.4C608.46 187.267 600.293 195.733 589.893 201.8C579.493 207.8 567.626 210.8 554.293 210.8ZM554.293 186C563.626 186 571.426 183.933 577.693 179.8C583.96 175.667 588.66 170 591.793 162.8C594.926 155.533 596.493 147.267 596.493 138C596.493 128.733 594.926 120.5 591.793 113.3C588.66 106.033 583.96 100.333 577.693 96.2C571.426 92.0666 563.626 90 554.293 90C544.96 90 537.16 92.0666 530.893 96.2C524.626 100.333 519.926 106.033 516.793 113.3C513.66 120.5 512.093 128.733 512.093 138C512.093 147.267 513.66 155.533 516.793 162.8C519.926 170 524.626 175.667 530.893 179.8C537.16 183.933 544.96 186 554.293 186Z" fill="#110D3F"/>
<path d="M752.968 210.8C738.768 210.8 726.268 207.8 715.468 201.8C704.668 195.733 696.235 187.267 690.168 176.4C684.168 165.467 681.168 152.667 681.168 138C681.168 123.333 684.268 110.567 690.468 99.7C696.735 88.7666 705.335 80.3 716.268 74.3C727.201 68.2333 739.701 65.2 753.768 65.2C761.168 65.2 767.935 66 774.068 67.6C780.201 69.1333 785.501 71.0666 789.968 73.4L787.168 97.8C782.101 95.4666 776.868 93.5666 771.468 92.1C766.135 90.5666 760.168 89.8 753.568 89.8C743.768 89.8 735.568 91.8666 728.968 96C722.435 100.133 717.501 105.833 714.168 113.1C710.835 120.367 709.168 128.667 709.168 138C709.168 147.333 710.801 155.633 714.068 162.9C717.335 170.167 722.201 175.867 728.668 180C735.201 184.133 743.301 186.2 752.968 186.2C759.701 186.2 765.735 185.467 771.068 184C776.401 182.533 781.768 180.6 787.168 178.2L789.968 202.6C784.701 205.067 778.901 207.033 772.568 208.5C766.301 210.033 759.768 210.8 752.968 210.8Z" fill="#110D3F"/>
<path d="M850.59 210C839.723 210 830.457 207.633 822.79 202.9C815.123 198.167 809.257 191.867 805.19 184C801.19 176.133 799.19 167.533 799.19 158.2C799.19 148.8 801.19 140.133 805.19 132.2C809.257 124.267 815.123 117.933 822.79 113.2C830.457 108.4 839.723 106 850.59 106C861.457 106 870.723 108.4 878.39 113.2C886.057 117.933 891.89 124.267 895.89 132.2C899.957 140.133 901.99 148.8 901.99 158.2C901.99 167.533 899.957 176.133 895.89 184C891.89 191.867 886.057 198.167 878.39 202.9C870.723 207.633 861.457 210 850.59 210ZM850.59 189.6C858.923 189.6 865.323 186.7 869.79 180.9C874.323 175.033 876.59 167.467 876.59 158.2C876.59 148.8 874.323 141.167 869.79 135.3C865.323 129.367 858.923 126.4 850.59 126.4C842.323 126.4 835.923 129.367 831.39 135.3C826.857 141.167 824.59 148.8 824.59 158.2C824.59 167.467 826.857 175.033 831.39 180.9C835.923 186.7 842.323 189.6 850.59 189.6Z" fill="#110D3F"/>
<path d="M918.753 208V108H939.953L941.552 122.6L937.953 118.2C941.753 115.2 946.286 112.5 951.552 110.1C956.886 107.633 963.086 106.4 970.152 106.4C975.486 106.4 980.186 107.2 984.253 108.8C988.386 110.333 991.919 112.567 994.852 115.5C997.786 118.367 1000.15 121.8 1001.95 125.8L995.953 124.4C999.153 118.667 1003.82 114.233 1009.95 111.1C1016.15 107.967 1023.15 106.4 1030.95 106.4C1040.15 106.4 1047.65 108.3 1053.45 112.1C1059.25 115.9 1063.52 121.267 1066.25 128.2C1068.99 135.067 1070.35 143.133 1070.35 152.4V208H1045.55V154.2C1045.55 144.867 1044.09 137.967 1041.15 133.5C1038.29 129.033 1033.49 126.8 1026.75 126.8C1023.42 126.8 1020.49 127.4 1017.95 128.6C1015.49 129.733 1013.42 131.433 1011.75 133.7C1010.15 135.9 1008.95 138.6 1008.15 141.8C1007.35 144.933 1006.95 148.467 1006.95 152.4V208H982.152V154.2C982.152 148 981.486 142.867 980.152 138.8C978.886 134.733 976.819 131.733 973.953 129.8C971.153 127.8 967.486 126.8 962.953 126.8C957.153 126.8 952.386 128.167 948.652 130.9C944.986 133.567 941.753 137.2 938.953 141.8L943.552 128.4V208H918.753Z" fill="#110D3F"/>
<path d="M1092.08 256.4V108H1112.08L1116.88 124.6L1109.48 122C1114.08 117.267 1119.08 113.5 1124.48 110.7C1129.88 107.833 1136.48 106.4 1144.28 106.4C1154.08 106.4 1162.31 108.767 1168.98 113.5C1175.65 118.233 1180.68 124.533 1184.08 132.4C1187.55 140.267 1189.28 148.867 1189.28 158.2C1189.28 167.533 1187.55 176.133 1184.08 184C1180.68 191.867 1175.65 198.167 1168.98 202.9C1162.31 207.633 1154.08 210 1144.28 210C1136.48 210 1130.15 208.933 1125.28 206.8C1120.41 204.667 1115.48 201.267 1110.48 196.6L1116.88 191.6V256.4H1092.08ZM1140.48 189.6C1147.88 189.6 1153.61 186.7 1157.68 180.9C1161.81 175.033 1163.88 167.467 1163.88 158.2C1163.88 148.867 1161.81 141.3 1157.68 135.5C1153.61 129.7 1147.88 126.8 1140.48 126.8C1134.75 126.8 1130.05 128.133 1126.38 130.8C1122.71 133.467 1120.01 137.167 1118.28 141.9C1116.55 146.567 1115.68 152 1115.68 158.2C1115.68 164.4 1116.55 169.867 1118.28 174.6C1120.01 179.267 1122.71 182.933 1126.38 185.6C1130.05 188.267 1134.75 189.6 1140.48 189.6Z" fill="#110D3F"/>
<path d="M1227.63 210C1222.3 210 1217.43 208.833 1213.03 206.5C1208.63 204.1 1205.13 200.667 1202.53 196.2C1199.93 191.733 1198.63 186.333 1198.63 180C1198.63 174.333 1199.93 169.5 1202.53 165.5C1205.2 161.433 1208.67 158.067 1212.93 155.4C1217.27 152.667 1221.93 150.533 1226.93 149C1232 147.4 1236.97 146.233 1241.83 145.5C1246.77 144.767 1251.1 144.333 1254.83 144.2C1254.57 138.467 1253.1 134.3 1250.43 131.7C1247.77 129.1 1243.23 127.8 1236.83 127.8C1232.37 127.8 1228 128.433 1223.73 129.7C1219.53 130.9 1214.77 132.8 1209.43 135.4L1207.23 115.2C1213.23 112.267 1219.23 110.067 1225.23 108.6C1231.3 107.133 1237.43 106.4 1243.63 106.4C1251.1 106.4 1257.53 107.733 1262.93 110.4C1268.33 113.067 1272.5 117.367 1275.43 123.3C1278.37 129.167 1279.83 136.933 1279.83 146.6V173.6C1279.83 178.6 1280.07 182.233 1280.53 184.5C1281 186.7 1281.87 188.1 1283.13 188.7C1284.4 189.3 1286.23 189.6 1288.63 189.6H1291.83L1289.63 210H1280.63C1276.9 210 1273.57 209.5 1270.63 208.5C1267.77 207.567 1265.3 206.233 1263.23 204.5C1261.17 202.767 1259.5 200.733 1258.23 198.4C1254.97 202.067 1250.53 204.933 1244.93 207C1239.4 209 1233.63 210 1227.63 210ZM1238.03 191C1240.23 191 1242.97 190.433 1246.23 189.3C1249.5 188.1 1252.43 186.267 1255.03 183.8V161C1250.37 161.2 1245.7 161.967 1241.03 163.3C1236.37 164.633 1232.47 166.6 1229.33 169.2C1226.2 171.8 1224.63 175.067 1224.63 179C1224.63 183.067 1225.7 186.1 1227.83 188.1C1229.97 190.033 1233.37 191 1238.03 191Z" fill="#110D3F"/>
<path d="M1305.14 208V108H1328.34L1329.34 126.6L1323.54 119C1327.34 115.8 1331.88 112.9 1337.14 110.3C1342.41 107.7 1348.54 106.4 1355.54 106.4C1368.34 106.4 1377.84 110.667 1384.04 119.2C1390.24 127.667 1393.34 138.667 1393.34 152.2V208H1368.54V154.2C1368.54 144.867 1366.98 137.967 1363.84 133.5C1360.78 129.033 1355.74 126.8 1348.74 126.8C1343.08 126.8 1338.44 128.2 1334.84 131C1331.24 133.733 1328.08 137.4 1325.34 142L1329.94 129.8V208H1305.14Z" fill="#110D3F"/>
<path d="M1414.99 208V108H1439.79V208H1414.99ZM1414.99 92.8V68H1439.79V92.8H1414.99Z" fill="#110D3F"/>
<path d="M1507.94 210C1497.07 210 1487.81 207.633 1480.14 202.9C1472.47 198.167 1466.61 191.867 1462.54 184C1458.54 176.133 1456.54 167.533 1456.54 158.2C1456.54 148.8 1458.54 140.133 1462.54 132.2C1466.61 124.267 1472.47 117.933 1480.14 113.2C1487.81 108.4 1497.07 106 1507.94 106C1518.81 106 1528.07 108.4 1535.74 113.2C1543.41 117.933 1549.24 124.267 1553.24 132.2C1557.31 140.133 1559.34 148.8 1559.34 158.2C1559.34 167.533 1557.31 176.133 1553.24 184C1549.24 191.867 1543.41 198.167 1535.74 202.9C1528.07 207.633 1518.81 210 1507.94 210ZM1507.94 189.6C1516.27 189.6 1522.67 186.7 1527.14 180.9C1531.67 175.033 1533.94 167.467 1533.94 158.2C1533.94 148.8 1531.67 141.167 1527.14 135.3C1522.67 129.367 1516.27 126.4 1507.94 126.4C1499.67 126.4 1493.27 129.367 1488.74 135.3C1484.21 141.167 1481.94 148.8 1481.94 158.2C1481.94 167.467 1484.21 175.033 1488.74 180.9C1493.27 186.7 1499.67 189.6 1507.94 189.6Z" fill="#110D3F"/>
<path d="M1576.1 208V108H1599.3L1600.3 126.6L1594.5 119C1598.3 115.8 1602.84 112.9 1608.1 110.3C1613.37 107.7 1619.5 106.4 1626.5 106.4C1639.3 106.4 1648.8 110.667 1655 119.2C1661.2 127.667 1664.3 138.667 1664.3 152.2V208H1639.5V154.2C1639.5 144.867 1637.94 137.967 1634.8 133.5C1631.74 129.033 1626.7 126.8 1619.7 126.8C1614.04 126.8 1609.4 128.2 1605.8 131C1602.2 133.733 1599.04 137.4 1596.3 142L1600.9 129.8V208H1576.1Z" fill="#110D3F"/>
</svg>
