<svg width="1594" height="322" viewBox="0 0 1594 322" fill="none" xmlns="http://www.w3.org/2000/svg">
<path d="M373.86 224V98H418.68C428.34 98 436.5 99.44 443.16 102.32C449.82 105.2 454.86 109.64 458.28 115.64C461.76 121.64 463.5 129.32 463.5 138.68C463.5 148.16 461.79 155.99 458.37 162.17C454.95 168.29 449.94 172.85 443.34 175.85C436.74 178.79 428.7 180.26 419.22 180.26H396.9V224H373.86ZM396.9 161H416.52C424.38 161 430.26 159.23 434.16 155.69C438.12 152.15 440.1 146.6 440.1 139.04C440.1 131.48 438.09 125.96 434.07 122.48C430.11 119 424.08 117.26 415.98 117.26H396.9V161ZM472.713 224L490.173 98H509.073L539.853 155.42L570.453 98H589.353L606.813 224H582.873L570.813 129.32L577.113 130.58L539.853 197.54L502.413 130.76L508.713 129.5L496.653 224H472.713ZM725.084 226.52C712.304 226.52 701.054 223.82 691.334 218.42C681.614 212.96 674.024 205.34 668.564 195.56C663.164 185.72 660.464 174.2 660.464 161C660.464 147.8 663.254 136.31 668.834 126.53C674.474 116.69 682.214 109.07 692.054 103.67C701.894 98.21 713.144 95.48 725.804 95.48C732.464 95.48 738.554 96.2 744.074 97.64C749.594 99.02 754.364 100.76 758.384 102.86L755.864 124.82C751.304 122.72 746.594 121.01 741.734 119.69C736.934 118.31 731.564 117.62 725.624 117.62C716.804 117.62 709.424 119.48 703.484 123.2C697.604 126.92 693.164 132.05 690.164 138.59C687.164 145.13 685.664 152.6 685.664 161C685.664 169.4 687.134 176.87 690.074 183.41C693.014 189.95 697.394 195.08 703.214 198.8C709.094 202.52 716.384 204.38 725.084 204.38C731.144 204.38 736.574 203.72 741.374 202.4C746.174 201.08 751.004 199.34 755.864 197.18L758.384 219.14C753.644 221.36 748.424 223.13 742.724 224.45C737.084 225.83 731.204 226.52 725.084 226.52ZM812.894 225.8C803.114 225.8 794.774 223.67 787.874 219.41C780.974 215.15 775.694 209.48 772.034 202.4C768.434 195.32 766.634 187.58 766.634 179.18C766.634 170.72 768.434 162.92 772.034 155.78C775.694 148.64 780.974 142.94 787.874 138.68C794.774 134.36 803.114 132.2 812.894 132.2C822.674 132.2 831.014 134.36 837.914 138.68C844.814 142.94 850.064 148.64 853.664 155.78C857.324 162.92 859.154 170.72 859.154 179.18C859.154 187.58 857.324 195.32 853.664 202.4C850.064 209.48 844.814 215.15 837.914 219.41C831.014 223.67 822.674 225.8 812.894 225.8ZM812.894 207.44C820.394 207.44 826.154 204.83 830.174 199.61C834.254 194.33 836.294 187.52 836.294 179.18C836.294 170.72 834.254 163.85 830.174 158.57C826.154 153.23 820.394 150.56 812.894 150.56C805.454 150.56 799.694 153.23 795.614 158.57C791.534 163.85 789.494 170.72 789.494 179.18C789.494 187.52 791.534 194.33 795.614 199.61C799.694 204.83 805.454 207.44 812.894 207.44ZM874.19 224V134H893.27L894.71 147.14L891.47 143.18C894.89 140.48 898.97 138.05 903.71 135.89C908.51 133.67 914.09 132.56 920.45 132.56C925.25 132.56 929.48 133.28 933.14 134.72C936.86 136.1 940.04 138.11 942.68 140.75C945.32 143.33 947.45 146.42 949.07 150.02L943.67 148.76C946.55 143.6 950.75 139.61 956.27 136.79C961.85 133.97 968.15 132.56 975.17 132.56C983.45 132.56 990.2 134.27 995.42 137.69C1000.64 141.11 1004.48 145.94 1006.94 152.18C1009.4 158.36 1010.63 165.62 1010.63 173.96V224H988.31V175.58C988.31 167.18 986.99 160.97 984.35 156.95C981.77 152.93 977.45 150.92 971.39 150.92C968.39 150.92 965.75 151.46 963.47 152.54C961.25 153.56 959.39 155.09 957.89 157.13C956.45 159.11 955.37 161.54 954.65 164.42C953.93 167.24 953.57 170.42 953.57 173.96V224H931.25V175.58C931.25 170 930.65 165.38 929.45 161.72C928.31 158.06 926.45 155.36 923.87 153.62C921.35 151.82 918.05 150.92 913.97 150.92C908.75 150.92 904.46 152.15 901.1 154.61C897.8 157.01 894.89 160.28 892.37 164.42L896.51 152.36V224H874.19ZM1030.14 267.56V134H1048.14L1052.46 148.94L1045.8 146.6C1049.94 142.34 1054.44 138.95 1059.3 136.43C1064.16 133.85 1070.1 132.56 1077.12 132.56C1085.94 132.56 1093.35 134.69 1099.35 138.95C1105.35 143.21 1109.88 148.88 1112.94 155.96C1116.06 163.04 1117.62 170.78 1117.62 179.18C1117.62 187.58 1116.06 195.32 1112.94 202.4C1109.88 209.48 1105.35 215.15 1099.35 219.41C1093.35 223.67 1085.94 225.8 1077.12 225.8C1070.1 225.8 1064.4 224.84 1060.02 222.92C1055.64 221 1051.2 217.94 1046.7 213.74L1052.46 209.24V267.56H1030.14ZM1073.7 207.44C1080.36 207.44 1085.52 204.83 1089.18 199.61C1092.9 194.33 1094.76 187.52 1094.76 179.18C1094.76 170.78 1092.9 163.97 1089.18 158.75C1085.52 153.53 1080.36 150.92 1073.7 150.92C1068.54 150.92 1064.31 152.12 1061.01 154.52C1057.71 156.92 1055.28 160.25 1053.72 164.51C1052.16 168.71 1051.38 173.6 1051.38 179.18C1051.38 184.76 1052.16 189.68 1053.72 193.94C1055.28 198.14 1057.71 201.44 1061.01 203.84C1064.31 206.24 1068.54 207.44 1073.7 207.44ZM1152.08 225.8C1147.28 225.8 1142.9 224.75 1138.94 222.65C1134.98 220.49 1131.83 217.4 1129.49 213.38C1127.15 209.36 1125.98 204.5 1125.98 198.8C1125.98 193.7 1127.15 189.35 1129.49 185.75C1131.89 182.09 1135.01 179.06 1138.85 176.66C1142.75 174.2 1146.95 172.28 1151.45 170.9C1156.01 169.46 1160.48 168.41 1164.86 167.75C1169.3 167.09 1173.2 166.7 1176.56 166.58C1176.32 161.42 1175 157.67 1172.6 155.33C1170.2 152.99 1166.12 151.82 1160.36 151.82C1156.34 151.82 1152.41 152.39 1148.57 153.53C1144.79 154.61 1140.5 156.32 1135.7 158.66L1133.72 140.48C1139.12 137.84 1144.52 135.86 1149.92 134.54C1155.38 133.22 1160.9 132.56 1166.48 132.56C1173.2 132.56 1178.99 133.76 1183.85 136.16C1188.71 138.56 1192.46 142.43 1195.1 147.77C1197.74 153.05 1199.06 160.04 1199.06 168.74V193.04C1199.06 197.54 1199.27 200.81 1199.69 202.85C1200.11 204.83 1200.89 206.09 1202.03 206.63C1203.17 207.17 1204.82 207.44 1206.98 207.44H1209.86L1207.88 225.8H1199.78C1196.42 225.8 1193.42 225.35 1190.78 224.45C1188.2 223.61 1185.98 222.41 1184.12 220.85C1182.26 219.29 1180.76 217.46 1179.62 215.36C1176.68 218.66 1172.69 221.24 1167.65 223.1C1162.67 224.9 1157.48 225.8 1152.08 225.8ZM1161.44 208.7C1163.42 208.7 1165.88 208.19 1168.82 207.17C1171.76 206.09 1174.4 204.44 1176.74 202.22V181.7C1172.54 181.88 1168.34 182.57 1164.14 183.77C1159.94 184.97 1156.43 186.74 1153.61 189.08C1150.79 191.42 1149.38 194.36 1149.38 197.9C1149.38 201.56 1150.34 204.29 1152.26 206.09C1154.18 207.83 1157.24 208.7 1161.44 208.7ZM1221.79 224V134H1242.67L1243.57 150.74L1238.35 143.9C1241.77 141.02 1245.85 138.41 1250.59 136.07C1255.33 133.73 1260.85 132.56 1267.15 132.56C1278.67 132.56 1287.22 136.4 1292.8 144.08C1298.38 151.7 1301.17 161.6 1301.17 173.78V224H1278.85V175.58C1278.85 167.18 1277.44 160.97 1274.62 156.95C1271.86 152.93 1267.33 150.92 1261.03 150.92C1255.93 150.92 1251.76 152.18 1248.52 154.7C1245.28 157.16 1242.43 160.46 1239.97 164.6L1244.11 153.62V224H1221.79ZM1320.61 224V134H1342.93V224H1320.61ZM1320.61 120.32V98H1342.93V120.32H1320.61ZM1404.21 225.8C1394.43 225.8 1386.09 223.67 1379.19 219.41C1372.29 215.15 1367.01 209.48 1363.35 202.4C1359.75 195.32 1357.95 187.58 1357.95 179.18C1357.95 170.72 1359.75 162.92 1363.35 155.78C1367.01 148.64 1372.29 142.94 1379.19 138.68C1386.09 134.36 1394.43 132.2 1404.21 132.2C1413.99 132.2 1422.33 134.36 1429.23 138.68C1436.13 142.94 1441.38 148.64 1444.98 155.78C1448.64 162.92 1450.47 170.72 1450.47 179.18C1450.47 187.58 1448.64 195.32 1444.98 202.4C1441.38 209.48 1436.13 215.15 1429.23 219.41C1422.33 223.67 1413.99 225.8 1404.21 225.8ZM1404.21 207.44C1411.71 207.44 1417.47 204.83 1421.49 199.61C1425.57 194.33 1427.61 187.52 1427.61 179.18C1427.61 170.72 1425.57 163.85 1421.49 158.57C1417.47 153.23 1411.71 150.56 1404.21 150.56C1396.77 150.56 1391.01 153.23 1386.93 158.57C1382.85 163.85 1380.81 170.72 1380.81 179.18C1380.81 187.52 1382.85 194.33 1386.93 199.61C1391.01 204.83 1396.77 207.44 1404.21 207.44ZM1465.51 224V134H1486.39L1487.29 150.74L1482.07 143.9C1485.49 141.02 1489.57 138.41 1494.31 136.07C1499.05 133.73 1504.57 132.56 1510.87 132.56C1522.39 132.56 1530.94 136.4 1536.52 144.08C1542.1 151.7 1544.89 161.6 1544.89 173.78V224H1522.57V175.58C1522.57 167.18 1521.16 160.97 1518.34 156.95C1515.58 152.93 1511.05 150.92 1504.75 150.92C1499.65 150.92 1495.48 152.18 1492.24 154.7C1489 157.16 1486.15 160.46 1483.69 164.6L1487.83 153.62V224H1465.51Z" fill="white"/>
<path d="M288.477 126.983L319.653 149.755M295.668 97.6437C298.986 119.149 284.241 139.271 262.736 142.588C241.231 145.906 221.109 131.161 217.792 109.656C214.475 88.1513 229.219 68.0289 250.724 64.7116C272.229 61.3945 292.351 76.1386 295.668 97.6437Z" stroke="#A38FFF" stroke-width="10.9" stroke-linecap="round" stroke-linejoin="round"/>
<path d="M203.911 94.0514C203.237 97.4341 202.882 100.932 202.882 104.513C202.882 133.895 226.701 157.714 256.083 157.714C259.456 157.714 262.755 157.399 265.953 156.799V221.778L262.415 222.111C228.939 225.226 199.917 239.038 177.217 262.654L170.789 269.342V127.099L175.042 121.417C180.472 114.162 191.394 103.233 198.615 97.8297C200.367 96.5188 202.132 95.2593 203.911 94.0514ZM67.5352 72.8112C85.7979 74.6227 106.182 81.5235 121.604 91.1413C134.896 99.4285 148.622 112.226 157.372 124.488L159.574 127.574V198.399C159.574 237.328 159.408 269.178 159.208 269.21C159 269.203 157.405 267.518 155.66 265.469C146.38 254.573 130.889 242.919 115.887 235.546C100.738 228.1 86.3491 223.964 70.0127 222.365C66.7917 222.053 64.1208 221.761 64.0781 221.719C64.0371 221.587 64.1199 188.009 64.2861 147.081L64.5615 72.5202L67.5352 72.8112ZM289.866 186.022C289.866 228.001 289.7 262.35 289.494 262.376C289.286 262.376 286.268 261.729 282.783 260.938C269.011 257.836 257.669 256.77 242.773 257.172C224.706 257.671 210.663 260.191 193.971 265.959L187.626 268.151L191.53 264.507C204.669 252.181 222.063 242.385 239.535 237.469C248.678 234.898 260.568 233.103 268.461 233.103C272.599 233.103 274.895 232.208 276.189 230.082C277.164 228.479 277.174 227.785 277.176 167.289V153.368C281.779 151.378 286.046 148.757 289.866 145.613V186.022ZM52.0791 105.848C52.5643 105.64 52.6895 118.113 52.6895 166.96C52.6895 233.709 52.5435 229.988 55.3916 231.86C56.3827 232.505 58.4418 232.797 64.3223 233.151C87.6944 234.484 109.872 242.332 127.977 255.685C131.881 258.565 141.251 266.473 141.788 267.341C142.163 267.945 141.912 267.883 135.896 265.717L135.896 265.694C128.963 263.212 117.515 260.287 109.786 259.025C99.2776 257.318 92.0277 256.864 79.1484 257.151C66.3516 257.422 58.6109 258.317 48.0518 260.714C45.0992 261.38 42.079 262.067 41.3408 262.213L40 262.505L40.002 185.947L40.0049 109.387L45.7373 107.722C48.8897 106.806 51.7436 105.952 52.0791 105.848Z" fill="#A38FFF"/>
<path d="M187.299 40.8549C186.076 37.7531 181.686 37.7531 180.463 40.8549L176.672 50.4672C176.298 51.4143 175.548 52.1639 174.601 52.5373L164.989 56.3284C161.887 57.5517 161.887 61.9416 164.989 63.1649L174.601 66.9559C175.548 67.3294 176.298 68.0792 176.672 69.0262L180.463 78.6383C181.686 81.7404 186.076 81.7404 187.299 78.6383L191.09 69.0262C191.464 68.0792 192.213 67.3294 193.16 66.9559L202.773 63.1649C205.875 61.9416 205.875 57.5517 202.773 56.3284L193.16 52.5373C192.213 52.1639 191.464 51.4143 191.09 50.4672L187.299 40.8549Z" fill="#A38FFF"/>
<path d="M156.38 75.7146C155.708 74.0103 153.295 74.0103 152.623 75.7146L149.683 83.1693C149.478 83.69 149.066 84.1019 148.545 84.3073L141.09 87.2471C139.386 87.9196 139.386 90.3319 141.09 91.0043L148.545 93.9442C149.066 94.1495 149.478 94.5615 149.683 95.0821L152.623 102.537C153.295 104.241 155.708 104.241 156.38 102.537L159.32 95.0821C159.525 94.5615 159.937 94.1495 160.458 93.9442L167.913 91.0043C169.617 90.3319 169.617 87.9196 167.913 87.2471L160.458 84.3073C159.937 84.1019 159.525 83.69 159.32 83.1693L156.38 75.7146Z" fill="#A38FFF"/>
</svg>
