<svg width="1308" height="495" viewBox="0 0 1308 495" fill="none" xmlns="http://www.w3.org/2000/svg">
<path d="M16.4 446V306H66.2C76.9333 306 86 307.6 93.4 310.8C100.8 314 106.4 318.933 110.2 325.6C114.067 332.267 116 340.8 116 351.2C116 361.733 114.1 370.433 110.3 377.3C106.5 384.1 100.933 389.167 93.6 392.5C86.2667 395.767 77.3333 397.4 66.8 397.4H42V446H16.4ZM42 376H63.8C72.5333 376 79.0667 374.033 83.4 370.1C87.8 366.167 90 360 90 351.6C90 343.2 87.7667 337.067 83.3 333.2C78.9 329.333 72.2 327.4 63.2 327.4H42V376ZM195.641 448.8C182.307 448.8 170.441 445.8 160.041 439.8C149.641 433.733 141.474 425.267 135.541 414.4C129.607 403.467 126.641 390.667 126.641 376C126.641 361.333 129.607 348.567 135.541 337.7C141.474 326.767 149.641 318.3 160.041 312.3C170.441 306.233 182.307 303.2 195.641 303.2C208.974 303.2 220.841 306.233 231.241 312.3C241.641 318.3 249.807 326.767 255.741 337.7C261.674 348.567 264.641 361.333 264.641 376C264.641 390.667 261.674 403.467 255.741 414.4C249.807 425.267 241.641 433.733 231.241 439.8C220.841 445.8 208.974 448.8 195.641 448.8ZM195.641 424C204.974 424 212.774 421.933 219.041 417.8C225.307 413.667 230.007 408 233.141 400.8C236.274 393.533 237.841 385.267 237.841 376C237.841 366.733 236.274 358.5 233.141 351.3C230.007 344.033 225.307 338.333 219.041 334.2C212.774 330.067 204.974 328 195.641 328C186.307 328 178.507 330.067 172.241 334.2C165.974 338.333 161.274 344.033 158.141 351.3C155.007 358.5 153.441 366.733 153.441 376C153.441 385.267 155.007 393.533 158.141 400.8C161.274 408 165.974 413.667 172.241 417.8C178.507 421.933 186.307 424 195.641 424ZM394.316 448.8C380.116 448.8 367.616 445.8 356.816 439.8C346.016 433.733 337.582 425.267 331.516 414.4C325.516 403.467 322.516 390.667 322.516 376C322.516 361.333 325.616 348.567 331.816 337.7C338.082 326.767 346.682 318.3 357.616 312.3C368.549 306.233 381.049 303.2 395.116 303.2C402.516 303.2 409.282 304 415.416 305.6C421.549 307.133 426.849 309.067 431.316 311.4L428.516 335.8C423.449 333.467 418.216 331.567 412.816 330.1C407.482 328.567 401.516 327.8 394.916 327.8C385.116 327.8 376.916 329.867 370.316 334C363.782 338.133 358.849 343.833 355.516 351.1C352.182 358.367 350.516 366.667 350.516 376C350.516 385.333 352.149 393.633 355.416 400.9C358.682 408.167 363.549 413.867 370.016 418C376.549 422.133 384.649 424.2 394.316 424.2C401.049 424.2 407.082 423.467 412.416 422C417.749 420.533 423.116 418.6 428.516 416.2L431.316 440.6C426.049 443.067 420.249 445.033 413.916 446.5C407.649 448.033 401.116 448.8 394.316 448.8ZM491.938 448C481.071 448 471.804 445.633 464.138 440.9C456.471 436.167 450.604 429.867 446.538 422C442.538 414.133 440.538 405.533 440.538 396.2C440.538 386.8 442.538 378.133 446.538 370.2C450.604 362.267 456.471 355.933 464.138 351.2C471.804 346.4 481.071 344 491.938 344C502.804 344 512.071 346.4 519.738 351.2C527.404 355.933 533.238 362.267 537.238 370.2C541.304 378.133 543.338 386.8 543.338 396.2C543.338 405.533 541.304 414.133 537.238 422C533.238 429.867 527.404 436.167 519.738 440.9C512.071 445.633 502.804 448 491.938 448ZM491.938 427.6C500.271 427.6 506.671 424.7 511.138 418.9C515.671 413.033 517.938 405.467 517.938 396.2C517.938 386.8 515.671 379.167 511.138 373.3C506.671 367.367 500.271 364.4 491.938 364.4C483.671 364.4 477.271 367.367 472.738 373.3C468.204 379.167 465.938 386.8 465.938 396.2C465.938 405.467 468.204 413.033 472.738 418.9C477.271 424.7 483.671 427.6 491.938 427.6ZM560.1 446V346H581.3L582.9 360.6L579.3 356.2C583.1 353.2 587.633 350.5 592.9 348.1C598.233 345.633 604.433 344.4 611.5 344.4C616.833 344.4 621.533 345.2 625.6 346.8C629.733 348.333 633.267 350.567 636.2 353.5C639.133 356.367 641.5 359.8 643.3 363.8L637.3 362.4C640.5 356.667 645.167 352.233 651.3 349.1C657.5 345.967 664.5 344.4 672.3 344.4C681.5 344.4 689 346.3 694.8 350.1C700.6 353.9 704.867 359.267 707.6 366.2C710.333 373.067 711.7 381.133 711.7 390.4V446H686.9V392.2C686.9 382.867 685.433 375.967 682.5 371.5C679.633 367.033 674.833 364.8 668.1 364.8C664.767 364.8 661.833 365.4 659.3 366.6C656.833 367.733 654.767 369.433 653.1 371.7C651.5 373.9 650.3 376.6 649.5 379.8C648.7 382.933 648.3 386.467 648.3 390.4V446H623.5V392.2C623.5 386 622.833 380.867 621.5 376.8C620.233 372.733 618.167 369.733 615.3 367.8C612.5 365.8 608.833 364.8 604.3 364.8C598.5 364.8 593.733 366.167 590 368.9C586.333 371.567 583.1 375.2 580.3 379.8L584.9 366.4V446H560.1ZM733.428 494.4V346H753.428L758.228 362.6L750.828 360C755.428 355.267 760.428 351.5 765.828 348.7C771.228 345.833 777.828 344.4 785.628 344.4C795.428 344.4 803.661 346.767 810.328 351.5C816.995 356.233 822.028 362.533 825.428 370.4C828.895 378.267 830.628 386.867 830.628 396.2C830.628 405.533 828.895 414.133 825.428 422C822.028 429.867 816.995 436.167 810.328 440.9C803.661 445.633 795.428 448 785.628 448C777.828 448 771.495 446.933 766.628 444.8C761.761 442.667 756.828 439.267 751.828 434.6L758.228 429.6V494.4H733.428ZM781.828 427.6C789.228 427.6 794.961 424.7 799.028 418.9C803.161 413.033 805.228 405.467 805.228 396.2C805.228 386.867 803.161 379.3 799.028 373.5C794.961 367.7 789.228 364.8 781.828 364.8C776.095 364.8 771.395 366.133 767.728 368.8C764.061 371.467 761.361 375.167 759.628 379.9C757.895 384.567 757.028 390 757.028 396.2C757.028 402.4 757.895 407.867 759.628 412.6C761.361 417.267 764.061 420.933 767.728 423.6C771.395 426.267 776.095 427.6 781.828 427.6ZM868.981 448C863.648 448 858.781 446.833 854.381 444.5C849.981 442.1 846.481 438.667 843.881 434.2C841.281 429.733 839.981 424.333 839.981 418C839.981 412.333 841.281 407.5 843.881 403.5C846.548 399.433 850.015 396.067 854.281 393.4C858.615 390.667 863.281 388.533 868.281 387C873.348 385.4 878.315 384.233 883.181 383.5C888.115 382.767 892.448 382.333 896.181 382.2C895.915 376.467 894.448 372.3 891.781 369.7C889.115 367.1 884.581 365.8 878.181 365.8C873.715 365.8 869.348 366.433 865.081 367.7C860.881 368.9 856.115 370.8 850.781 373.4L848.581 353.2C854.581 350.267 860.581 348.067 866.581 346.6C872.648 345.133 878.781 344.4 884.981 344.4C892.448 344.4 898.881 345.733 904.281 348.4C909.681 351.067 913.848 355.367 916.781 361.3C919.715 367.167 921.181 374.933 921.181 384.6V411.6C921.181 416.6 921.415 420.233 921.881 422.5C922.348 424.7 923.215 426.1 924.481 426.7C925.748 427.3 927.581 427.6 929.981 427.6H933.181L930.981 448H921.981C918.248 448 914.915 447.5 911.981 446.5C909.115 445.567 906.648 444.233 904.581 442.5C902.515 440.767 900.848 438.733 899.581 436.4C896.315 440.067 891.881 442.933 886.281 445C880.748 447 874.981 448 868.981 448ZM879.381 429C881.581 429 884.315 428.433 887.581 427.3C890.848 426.1 893.781 424.267 896.381 421.8V399C891.715 399.2 887.048 399.967 882.381 401.3C877.715 402.633 873.815 404.6 870.681 407.2C867.548 409.8 865.981 413.067 865.981 417C865.981 421.067 867.048 424.1 869.181 426.1C871.315 428.033 874.715 429 879.381 429ZM946.491 446V346H969.691L970.691 364.6L964.891 357C968.691 353.8 973.224 350.9 978.491 348.3C983.757 345.7 989.891 344.4 996.891 344.4C1009.69 344.4 1019.19 348.667 1025.39 357.2C1031.59 365.667 1034.69 376.667 1034.69 390.2V446H1009.89V392.2C1009.89 382.867 1008.32 375.967 1005.19 371.5C1002.12 367.033 997.091 364.8 990.091 364.8C984.424 364.8 979.791 366.2 976.191 369C972.591 371.733 969.424 375.4 966.691 380L971.291 367.8V446H946.491ZM1056.34 446V346H1081.14V446H1056.34ZM1056.34 330.8V306H1081.14V330.8H1056.34ZM1149.29 448C1138.42 448 1129.16 445.633 1121.49 440.9C1113.82 436.167 1107.96 429.867 1103.89 422C1099.89 414.133 1097.89 405.533 1097.89 396.2C1097.89 386.8 1099.89 378.133 1103.89 370.2C1107.96 362.267 1113.82 355.933 1121.49 351.2C1129.16 346.4 1138.42 344 1149.29 344C1160.16 344 1169.42 346.4 1177.09 351.2C1184.76 355.933 1190.59 362.267 1194.59 370.2C1198.66 378.133 1200.69 386.8 1200.69 396.2C1200.69 405.533 1198.66 414.133 1194.59 422C1190.59 429.867 1184.76 436.167 1177.09 440.9C1169.42 445.633 1160.16 448 1149.29 448ZM1149.29 427.6C1157.62 427.6 1164.02 424.7 1168.49 418.9C1173.02 413.033 1175.29 405.467 1175.29 396.2C1175.29 386.8 1173.02 379.167 1168.49 373.3C1164.02 367.367 1157.62 364.4 1149.29 364.4C1141.02 364.4 1134.62 367.367 1130.09 373.3C1125.56 379.167 1123.29 386.8 1123.29 396.2C1123.29 405.467 1125.56 413.033 1130.09 418.9C1134.62 424.7 1141.02 427.6 1149.29 427.6ZM1217.45 446V346H1240.65L1241.65 364.6L1235.85 357C1239.65 353.8 1244.18 350.9 1249.45 348.3C1254.72 345.7 1260.85 344.4 1267.85 344.4C1280.65 344.4 1290.15 348.667 1296.35 357.2C1302.55 365.667 1305.65 376.667 1305.65 390.2V446H1280.85V392.2C1280.85 382.867 1279.28 375.967 1276.15 371.5C1273.08 367.033 1268.05 364.8 1261.05 364.8C1255.38 364.8 1250.75 366.2 1247.15 369C1243.55 371.733 1240.38 375.4 1237.65 380L1242.25 367.8V446H1217.45Z" fill="white"/>
<path d="M262.477 127.983L293.653 150.755M269.669 98.6437C272.986 120.149 258.241 140.271 236.737 143.588C215.231 146.906 195.109 132.161 191.792 110.656C188.475 89.1513 203.219 69.0289 224.724 65.7117C246.229 62.3945 266.351 77.1386 269.669 98.6437Z" stroke="#A38FFF" stroke-width="10.9" stroke-linecap="round" stroke-linejoin="round"/>
<path d="M177.911 95.0515C177.237 98.4342 176.882 101.932 176.882 105.513C176.882 134.895 200.701 158.715 230.083 158.715C233.456 158.715 236.755 158.4 239.953 157.8V222.778L236.415 223.111C202.939 226.226 173.917 240.038 151.217 263.654L144.789 270.343V128.099L149.042 122.417C154.472 115.162 165.394 104.233 172.615 98.8298C174.367 97.5189 176.132 96.2594 177.911 95.0515ZM41.5352 73.8113C59.7979 75.6228 80.1818 82.5236 95.6045 92.1414C108.896 100.429 122.622 113.226 131.372 125.488L133.574 128.574V199.399C133.574 238.328 133.408 270.178 133.208 270.21C133 270.203 131.405 268.518 129.66 266.469C120.38 255.573 104.889 243.919 89.8867 236.546C74.7382 229.1 60.3491 224.964 44.0127 223.365C40.7917 223.053 38.1208 222.761 38.0781 222.719C38.0371 222.587 38.1199 189.009 38.2861 148.081L38.5615 73.5203L41.5352 73.8113ZM263.866 187.022C263.866 229.001 263.7 263.35 263.494 263.376C263.286 263.376 260.268 262.729 256.783 261.938C243.011 258.836 231.669 257.77 216.773 258.172C198.706 258.671 184.663 261.191 167.971 266.959L161.626 269.151L165.53 265.508C178.669 253.181 196.063 243.386 213.535 238.469C222.678 235.898 234.568 234.103 242.461 234.103C246.599 234.103 248.895 233.208 250.189 231.082C251.164 229.479 251.174 228.785 251.176 168.289V154.368C255.779 152.378 260.046 149.757 263.866 146.613V187.022ZM26.0791 106.848C26.5643 106.64 26.6895 119.113 26.6895 167.96C26.6895 234.709 26.5435 230.988 29.3916 232.86C30.3827 233.506 32.4418 233.797 38.3223 234.151C61.6944 235.484 83.8716 243.332 101.977 256.685C105.881 259.565 115.251 267.473 115.788 268.342C116.163 268.945 115.912 268.883 109.896 266.718L109.896 266.694C102.963 264.212 91.5147 261.287 83.7861 260.025C73.2776 258.318 66.0277 257.864 53.1484 258.151C40.3516 258.422 32.6109 259.317 22.0518 261.714C19.0992 262.38 16.079 263.067 15.3408 263.213L14 263.505L14.002 186.947L14.0049 110.387L19.7373 108.722C22.8897 107.806 25.7436 106.953 26.0791 106.848Z" fill="#A38FFF"/>
<path d="M161.299 41.8549C160.076 38.7531 155.686 38.7531 154.463 41.855L150.672 51.4673C150.298 52.4143 149.548 53.1639 148.601 53.5374L138.989 57.3284C135.887 58.5518 135.887 62.9416 138.989 64.165L148.601 67.956C149.548 68.3294 150.298 69.0792 150.672 70.0262L154.463 79.6383C155.686 82.7404 160.076 82.7404 161.299 79.6383L165.09 70.0262C165.464 69.0792 166.213 68.3294 167.16 67.956L176.773 64.165C179.875 62.9416 179.875 58.5518 176.773 57.3284L167.16 53.5374C166.213 53.1639 165.464 52.4143 165.09 51.4673L161.299 41.8549Z" fill="#A38FFF"/>
<path d="M130.38 76.7145C129.708 75.0102 127.295 75.0102 126.623 76.7145L123.683 84.1692C123.478 84.6899 123.066 85.1019 122.545 85.3072L115.09 88.247C113.386 88.9195 113.386 91.3318 115.09 92.0043L122.545 94.9441C123.066 95.1495 123.478 95.5614 123.683 96.0821L126.623 103.537C127.295 105.241 129.708 105.241 130.38 103.537L133.32 96.0821C133.525 95.5614 133.937 95.1495 134.458 94.9441L141.913 92.0043C143.617 91.3318 143.617 88.9195 141.913 88.247L134.458 85.3072C133.937 85.1019 133.525 84.6899 133.32 84.1692L130.38 76.7145Z" fill="#A38FFF"/>
</svg>
