<svg width="220" height="220" viewBox="0 0 220 220" fill="none" xmlns="http://www.w3.org/2000/svg">
<rect width="220" height="220" rx="16" fill="#8175DF"/>
<path d="M179.661 95.8275L198.314 109.452M183.964 78.2739C185.949 91.1401 177.128 103.179 164.261 105.164C151.395 107.149 139.356 98.3272 137.371 85.461C135.387 72.5947 144.208 60.5557 157.074 58.571C169.94 56.5864 181.98 65.4076 183.964 78.2739Z" stroke="#110D3F" stroke-width="6.52136" stroke-linecap="round" stroke-linejoin="round"/>
<path d="M129.067 76.1238C128.664 78.148 128.451 80.2416 128.451 82.3845C128.451 99.9633 142.701 114.213 160.28 114.214C162.298 114.214 164.272 114.023 166.186 113.664V152.543L164.069 152.742C144.041 154.606 126.677 162.869 113.096 176.999L109.25 181V95.8972L111.794 92.4968C115.042 88.1567 121.577 81.6184 125.897 78.3855C126.946 77.6009 128.002 76.8467 129.067 76.1238ZM47.4746 63.4167C58.4009 64.5006 70.5961 68.6294 79.8232 74.3835C87.7754 79.3417 95.9872 86.9983 101.223 94.3347L102.54 96.1814V138.555C102.54 161.86 102.44 180.923 102.32 180.92C102.194 180.913 101.241 179.907 100.198 178.682C94.6459 172.163 85.378 165.191 76.4023 160.78C67.339 156.325 58.73 153.851 48.956 152.894C47.0289 152.707 45.4308 152.532 45.4052 152.508C45.3806 152.43 45.4308 132.339 45.5302 107.851L45.6943 63.2429L47.4746 63.4167ZM180.493 131.15C180.493 156.275 180.393 176.832 180.269 176.832C180.142 176.831 178.338 176.445 176.255 175.972C168.015 174.116 161.229 173.478 152.317 173.719C141.507 174.017 133.106 175.525 123.119 178.975L119.323 180.287L121.659 178.107C129.52 170.732 139.926 164.872 150.38 161.93C155.85 160.392 162.963 159.318 167.686 159.318C170.161 159.318 171.535 158.782 172.31 157.51C172.893 156.551 172.899 156.138 172.9 119.942V111.611C175.654 110.42 178.208 108.854 180.493 106.973V131.15ZM38.2265 83.1824C38.5168 83.0578 38.5918 90.5202 38.5918 119.745C38.5918 159.681 38.505 157.455 40.2089 158.575C40.8021 158.961 42.0344 159.136 45.5517 159.347C59.5351 160.145 72.8037 164.84 83.6357 172.829C85.9712 174.551 91.5754 179.282 91.8984 179.802C92.1226 180.164 91.9733 180.126 88.374 178.831L88.373 178.817C84.2255 177.332 77.3758 175.582 72.7519 174.827C66.4649 173.805 62.1273 173.534 54.4218 173.706C46.7657 173.868 42.1348 174.404 35.8173 175.838C34.0508 176.236 32.2433 176.647 31.8017 176.734L31 176.909L31.0009 131.105L31.0029 85.3005L34.4326 84.3035C36.3183 83.7554 38.0255 83.2447 38.2265 83.1824Z" fill="#110D3F"/>
<path d="M119.128 44.2978C118.396 42.442 115.77 42.4421 115.038 44.2979L112.77 50.0488C112.546 50.6154 112.098 51.0639 111.531 51.2873L105.78 53.5555C103.924 54.2874 103.924 56.9138 105.78 57.6457L111.531 59.9139C112.098 60.1373 112.546 60.5859 112.77 61.1525L115.038 66.9033C115.77 68.7593 118.396 68.7593 119.128 66.9033L121.396 61.1525C121.62 60.5859 122.068 60.1373 122.635 59.9139L128.386 57.6457C130.242 56.9138 130.242 54.2874 128.386 53.5555L122.635 51.2873C122.068 51.0639 121.62 50.6154 121.396 50.0488L119.128 44.2978Z" fill="#110D3F"/>
<path d="M100.629 65.1542C100.227 64.1345 98.7835 64.1345 98.3812 65.1542L96.6223 69.6143C96.4995 69.9258 96.253 70.1722 95.9415 70.2951L91.4814 72.054C90.4617 72.4563 90.4617 73.8996 91.4814 74.3019L95.9415 76.0608C96.253 76.1836 96.4995 76.4301 96.6223 76.7416L98.3812 81.2017C98.7835 82.2214 100.227 82.2214 100.629 81.2017L102.388 76.7416C102.511 76.4301 102.757 76.1836 103.069 76.0608L107.529 74.3019C108.549 73.8996 108.549 72.4563 107.529 72.054L103.069 70.2951C102.757 70.1722 102.511 69.9258 102.388 69.6143L100.629 65.1542Z" fill="#110D3F"/>
</svg>
