<svg width="220" height="220" viewBox="0 0 220 220" fill="none" xmlns="http://www.w3.org/2000/svg">
<path d="M177.057 95.5079L196.261 109.535M181.487 77.4352C183.531 90.6819 174.448 103.077 161.202 105.12C147.955 107.164 135.56 98.0815 133.517 84.8348C131.473 71.5881 140.555 59.193 153.802 57.1497C167.049 55.1064 179.444 64.1885 181.487 77.4352Z" stroke="#8175DF" stroke-width="6.7142" stroke-linecap="round" stroke-linejoin="round"/>
<path d="M124.967 75.2224C124.551 77.3061 124.333 79.4609 124.333 81.6667C124.333 99.7656 139.005 114.438 157.104 114.438C159.181 114.438 161.213 114.242 163.184 113.873V153.9L161.004 154.105C140.383 156.024 122.506 164.531 108.522 179.079L104.563 183.199V95.5789L107.184 92.0789C110.528 87.6102 117.256 80.8779 121.704 77.5496C122.783 76.742 123.871 75.9665 124.967 75.2224ZM40.9619 62.1394C52.2112 63.2553 64.7667 67.5053 74.2666 73.4294C82.4538 78.5342 90.9086 86.4173 96.2988 93.9705L97.6553 95.8718V139.499C97.6553 163.493 97.5528 183.121 97.4297 183.117C97.3011 183.113 96.3199 182.075 95.2451 180.813C89.5287 174.101 79.9864 166.922 70.7451 162.381C61.4139 157.794 52.5503 155.247 42.4873 154.261C40.5068 154.069 38.8641 153.89 38.832 153.864C38.8064 153.864 38.8574 133.149 38.96 107.887L39.1289 61.9597L40.9619 62.1394ZM177.913 131.875C177.913 157.743 177.811 178.907 177.684 178.907C177.553 178.906 175.696 178.509 173.551 178.022C165.067 176.111 158.08 175.454 148.904 175.702C137.775 176.01 129.126 177.561 118.844 181.114L114.936 182.465L117.34 180.22C125.433 172.627 136.148 166.594 146.91 163.566C152.542 161.982 159.866 160.876 164.728 160.876C167.276 160.876 168.691 160.325 169.488 159.015C170.089 158.028 170.095 157.602 170.097 120.335V111.759C172.932 110.533 175.56 108.92 177.913 106.983V131.875ZM31.4404 82.489C31.7393 82.3608 31.8164 90.0437 31.8164 120.133C31.8164 161.246 31.7265 158.958 33.4805 160.11C34.091 160.508 35.3599 160.688 38.9824 160.906C53.3792 161.727 67.0401 166.56 78.1924 174.786C80.5973 176.56 86.3684 181.432 86.6992 181.967C86.9299 182.338 86.7755 182.299 83.0703 180.966V180.952C78.8003 179.423 71.748 177.621 66.9873 176.844C60.5142 175.792 56.0478 175.512 48.1143 175.689C40.2319 175.856 35.464 176.407 28.96 177.884C27.1413 178.294 25.281 178.718 24.8262 178.807L24 178.987L24.001 131.829L24.0029 84.6697L27.5342 83.6433C29.4758 83.079 31.2336 82.5532 31.4404 82.489Z" fill="#8175DF"/>
<path d="M114.734 42.4544C113.98 40.5437 111.276 40.5437 110.523 42.4544L108.187 48.3754C107.957 48.9587 107.496 49.4205 106.912 49.6505L100.991 51.9858C99.0805 52.7393 99.0805 55.4434 100.991 56.1969L106.912 58.5321C107.496 58.7622 107.957 59.224 108.187 59.8074L110.523 65.7283C111.276 67.6391 113.98 67.6391 114.734 65.7283L117.069 59.8074C117.299 59.224 117.761 58.7622 118.344 58.5321L124.265 56.1969C126.176 55.4434 126.176 52.7393 124.265 51.9858L118.344 49.6505C117.761 49.4205 117.299 48.9587 117.069 48.3754L114.734 42.4544Z" fill="#8175DF"/>
<path d="M95.6882 63.9273C95.274 62.8774 93.788 62.8774 93.3738 63.9273L91.5629 68.5192C91.4364 68.84 91.1827 69.0937 90.862 69.2202L86.27 71.0311C85.2201 71.4453 85.2201 72.9313 86.27 73.3455L90.862 75.1564C91.1827 75.2829 91.4364 75.5366 91.5629 75.8573L93.3738 80.4493C93.788 81.4992 95.274 81.4992 95.6882 80.4493L97.4991 75.8573C97.6256 75.5366 97.8793 75.2829 98.2001 75.1564L102.792 73.3455C103.842 72.9313 103.842 71.4453 102.792 71.0311L98.2001 69.2202C97.8793 69.0937 97.6256 68.84 97.4991 68.5192L95.6882 63.9273Z" fill="#8175DF"/>
</svg>
